<svg width="46" height="46" viewBox="0 0 46 46" fill="none" xmlns="http://www.w3.org/2000/svg">
<path opacity="0.9" fill-rule="evenodd" clip-rule="evenodd" d="M30.1217 3.45215C29.9767 2.81446 29.4097 2.36195 28.7558 2.36195C28.1018 2.36195 27.5348 2.81446 27.3898 3.45215L26.6148 6.86055C26.5246 7.25733 26.3791 7.63223 26.1867 7.97688C23.2191 5.92381 20.2214 4.3863 17.3954 3.44429C12.4771 1.80487 7.62391 1.84785 4.62529 4.84647C1.62666 7.8451 1.58368 12.6983 3.2231 17.6165C3.84433 19.4803 4.72457 21.4186 5.84085 23.3738C4.72457 25.3289 3.84433 27.2673 3.2231 29.131C1.58368 34.0493 1.62666 38.9025 4.62528 41.9011C7.62391 44.8997 12.4771 44.9427 17.3954 43.3033C19.2591 42.6821 21.1974 41.8018 23.1526 40.6855C25.1077 41.8018 27.0461 42.6821 28.9098 43.3033C33.8281 44.9427 38.6813 44.8997 41.6799 41.9011C44.6785 38.9025 44.7215 34.0493 43.0821 29.131C42.4609 27.2673 41.5806 25.3289 40.4643 23.3738C41.5806 21.4186 42.4609 19.4803 43.0821 17.6165C44.7215 12.6983 44.6785 7.8451 41.6799 4.84647C41.1328 4.29943 40.2459 4.29943 39.6989 4.84647C39.1518 5.39351 39.1518 6.28044 39.6989 6.82749C41.5429 8.67153 41.9584 12.1283 40.4243 16.7306C40.0042 17.991 39.4466 19.3037 38.7583 20.6441C37.3221 18.5305 35.6233 16.4286 33.6908 14.4111C33.8124 14.3715 33.9364 14.3372 34.0627 14.3084L37.4711 13.5334C38.1087 13.3884 38.5613 12.8214 38.5613 12.1675C38.5613 11.5135 38.1087 10.9465 37.4711 10.8016L34.0627 10.0265C32.4862 9.66805 31.2552 8.43704 30.8967 6.86055L30.1217 3.45215ZM31.4597 16.1333C31.1997 16.5374 31.007 16.9896 30.8967 17.4744L30.1217 20.8828C29.9767 21.5205 29.4097 21.973 28.7558 21.973C28.1018 21.973 27.5348 21.5205 27.3898 20.8828L26.6148 17.4744C26.2563 15.8979 25.0253 14.6669 23.4488 14.3084L20.0404 13.5334C19.4028 13.3884 18.9502 12.8214 18.9502 12.1675C18.9502 11.5135 19.4028 10.9465 20.0404 10.8016L23.4488 10.0265C23.6319 9.98491 23.8103 9.93147 23.9833 9.86717C21.4165 8.15898 18.8709 6.88928 16.5094 6.1021C11.9071 4.56797 8.45034 4.98345 6.6063 6.82749C4.76226 8.67153 4.34679 12.1283 5.88091 16.7306C6.30103 17.991 6.85859 19.3037 7.5469 20.6441C9.17314 18.2508 11.136 15.8726 13.3937 13.6148C13.9407 13.0678 14.8276 13.0678 15.3747 13.6148C15.9217 14.1619 15.9217 15.0488 15.3747 15.5959C12.8564 18.1142 10.7519 20.7642 9.10794 23.3738C10.7519 25.9834 12.8564 28.6334 15.3747 31.1517C17.893 33.67 20.543 35.7745 23.1526 37.4184C25.7622 35.7745 28.4122 33.67 30.9305 31.1517C33.4488 28.6334 35.5533 25.9834 37.1973 23.3738C35.6698 20.9492 33.7448 18.4897 31.4597 16.1333ZM38.7583 26.1034C37.132 28.4968 35.1692 30.875 32.9115 33.1327C30.6538 35.3904 28.2756 37.3532 25.8822 38.9795C27.2227 39.6678 28.5354 40.2253 29.7958 40.6455C34.3981 42.1796 37.8549 41.7641 39.6989 39.9201C41.5429 38.076 41.9584 34.6193 40.4243 30.017C40.0042 28.7566 39.4466 27.4438 38.7583 26.1034ZM20.4229 38.9795C18.0296 37.3532 15.6514 35.3904 13.3937 33.1327C11.136 30.875 9.17314 28.4968 7.5469 26.1034C6.85859 27.4438 6.30103 28.7566 5.88091 30.017C4.34679 34.6193 4.76226 38.076 6.6063 39.9201C8.45034 41.7641 11.9071 42.1796 16.5094 40.6455C17.7698 40.2253 19.0825 39.6678 20.4229 38.9795Z" fill="url(#paint0_linear_458_13661)"/>
<defs>
<linearGradient id="paint0_linear_458_13661" x1="55.8197" y1="52.8751" x2="18.5461" y2="9.27064" gradientUnits="userSpaceOnUse">
<stop offset="0.003" stop-color="white"/>
<stop offset="1" stop-color="#605E62"/>
</linearGradient>
</defs>
</svg>
