<svg width="398" height="191" viewBox="0 0 398 191" fill="none" xmlns="http://www.w3.org/2000/svg">
<mask id="mask0_693_954" style="mask-type:luminance" maskUnits="userSpaceOnUse" x="0" y="0" width="398" height="191">
<path d="M397.99 0H0.0107422V190.81H397.99V0Z" fill="white"/>
</mask>
<g mask="url(#mask0_693_954)">
<path opacity="0.1" fill-rule="evenodd" clip-rule="evenodd" d="M21.3522 222.395V247.02H-3.62402V247.723H21.3522V272.348H-3.62402V273.051H21.3522V298.027H22.0558V273.051H46.6802V298.027H47.3838V273.051H72.0083V298.027H72.7119V273.051H97.3364V298.027H98.0397V273.051H122.664V298.027H123.368V273.051H147.992V298.027H148.696V273.051H173.32V298.027H174.024V273.051H198.649V298.027H199.352V273.051H223.977V298.027H224.68V273.051H249.305V298.027H250.008V273.051H274.633V298.027H275.336V273.051H299.961V298.027H300.664V273.051H325.289V298.027H325.992V273.051H350.617V298.027H351.32V273.051H375.945V298.027H376.648V273.051H401.624V272.348H376.648V247.723H401.624V247.02H376.648V222.395H401.624V221.692H376.648V197.068H401.624V196.364H376.648V171.74H401.624V171.037H376.648V146.412H401.624V145.709H376.648V121.084H401.624V120.381H376.648V95.7567H401.624V95.0534H376.648V70.4291H401.624V69.7255H376.648V45.1013H401.624V44.3978H376.648V19.7736H401.624V19.07H376.648V-5.55423H401.624V-6.25778H376.648V-30.882H401.624V-31.5855H376.648V-56.2097H401.624V-56.9133H376.648V-81.5375H401.624V-82.2411H376.648V-107.217H375.945V-82.2411H351.32V-107.217H350.617V-82.2411H325.992V-107.217H325.289V-82.2411H300.664V-107.217H299.961V-82.2411H275.336V-107.217H274.633V-82.2411H250.008V-107.217H249.305V-82.2411H224.68V-107.217H223.977V-82.2411H199.352V-107.217H198.649V-82.2411H174.024V-107.217H173.32V-82.2411H148.696V-107.217H147.992V-82.2411H123.368V-107.217H122.664V-82.2411H98.0397V-107.217H97.3364V-82.2411H72.7119V-107.217H72.0083V-82.2411H47.3838V-107.217H46.6802V-82.2411H22.0558V-107.217H21.3522V-82.2411H-3.62402V-81.5376H21.3522V-56.9133H-3.62402V-56.2098H21.3522V-31.5856H-3.62402V-30.882H21.3522V-6.2578H-3.62402V-5.55425H21.3522V19.0699H-3.62402V19.7735H21.3522V44.3977H-3.62402V45.1012H21.3522V69.7254H-3.62402V70.429H21.3522V95.0534H-3.62402V95.7567H21.3522V120.381H-3.62402V121.084H21.3522V145.709H-3.62402V146.412H21.3522V171.037H-3.62402V171.74H21.3522V196.364H-3.62402V197.068H21.3522V221.692H-3.62402V222.395H21.3522ZM375.945 272.348V247.723H351.32V272.348H375.945ZM350.617 272.348V247.723H325.992V272.348H350.617ZM325.289 272.348V247.723H300.664V272.348H325.289ZM299.961 272.348V247.723H275.336V272.348H299.961ZM274.633 272.348V247.723H250.008V272.348H274.633ZM249.305 272.348V247.723H224.68V272.348H249.305ZM223.977 272.348V247.723H199.352V272.348H223.977ZM198.649 272.348V247.723H174.024V272.348H198.649ZM173.32 272.348V247.723H148.696V272.348H173.32ZM147.992 272.348V247.723H123.368V272.348H147.992ZM122.664 272.348V247.723H98.0397V272.348H122.664ZM97.3364 272.348V247.723H72.7119V272.348H97.3364ZM72.0083 272.348V247.723H47.3838V272.348H72.0083ZM46.6802 272.348V247.723H22.0558V272.348H46.6802ZM46.6802 247.02H22.0558V222.395H46.6802V247.02ZM72.0083 247.02H47.3838V222.395H72.0083V247.02ZM97.3364 247.02H72.7119V222.395H97.3364V247.02ZM122.664 247.02H98.0397V222.395H122.664V247.02ZM147.992 247.02H123.368V222.395H147.992V247.02ZM173.32 247.02H148.696V222.395H173.32V247.02ZM198.649 247.02H174.024V222.395H198.649V247.02ZM223.977 247.02H199.352V222.395H223.977V247.02ZM249.305 247.02H224.68V222.395H249.305V247.02ZM274.633 247.02H250.008V222.395H274.633V247.02ZM299.961 247.02H275.336V222.395H299.961V247.02ZM325.289 247.02H300.664V222.395H325.289V247.02ZM350.617 247.02H325.992V222.395H350.617V247.02ZM375.945 247.02H351.32V222.395H375.945V247.02ZM375.945 -81.5375H351.32V-56.9133H375.945V-81.5375ZM375.945 -56.2098H351.32V-31.5856H375.945V-56.2098ZM375.945 -30.882H351.32V-6.25779H375.945V-30.882ZM375.945 -5.55425H351.32V19.0699H375.945V-5.55425ZM375.945 19.7735H351.32V44.3977H375.945V19.7735ZM375.945 45.1012H351.32V69.7254H375.945V45.1012ZM375.945 70.429H351.32V95.0534H375.945V70.429ZM375.945 95.7567H351.32V120.381H375.945V95.7567ZM375.945 121.084H351.32V145.709H375.945V121.084ZM375.945 146.412H351.32V171.037H375.945V146.412ZM375.945 171.74H351.32V196.364H375.945V171.74ZM375.945 197.068H351.32V221.692H375.945V197.068ZM350.617 197.068V221.692H325.992V197.068H350.617ZM350.617 171.74V196.364H325.992V171.74H350.617ZM350.617 146.412V171.037H325.992V146.412H350.617ZM350.617 121.084V145.709H325.992V121.084H350.617ZM350.617 95.7567V120.381H325.992V95.7567H350.617ZM350.617 70.429V95.0534H325.992V70.429H350.617ZM350.617 45.1012V69.7254H325.992V45.1012H350.617ZM350.617 19.7735V44.3977H325.992V19.7735H350.617ZM350.617 -5.55425V19.0699H325.992V-5.55425H350.617ZM350.617 -30.882V-6.25779H325.992V-30.882H350.617ZM350.617 -56.2098V-31.5856H325.992V-56.2098H350.617ZM350.617 -81.5375V-56.9133H325.992V-81.5375H350.617ZM22.0558 221.692H46.6802V197.068H22.0558V221.692ZM47.3838 221.692H72.0083V197.068H47.3838V221.692ZM72.7119 221.692H97.3364V197.068H72.7119V221.692ZM98.0397 221.692H122.664V197.068H98.0397V221.692ZM123.368 221.692H147.992V197.068H123.368V221.692ZM148.696 221.692H173.32V197.068H148.696V221.692ZM174.024 221.692H198.649V197.068H174.024V221.692ZM199.352 221.692H223.977V197.068H199.352V221.692ZM224.68 221.692H249.305V197.068H224.68V221.692ZM250.008 221.692H274.633V197.068H250.008V221.692ZM275.336 221.692H299.961V197.068H275.336V221.692ZM300.664 221.692H325.289V197.068H300.664V221.692ZM325.289 171.74V196.364H300.664V171.74H325.289ZM325.289 146.412V171.037H300.664V146.412H325.289ZM325.289 121.084V145.709H300.664V121.084H325.289ZM325.289 95.7567V120.381H300.664V95.7567H325.289ZM325.289 70.429V95.0534H300.664V70.429H325.289ZM325.289 45.1012V69.7254H300.664V45.1012H325.289ZM325.289 19.7735V44.3977H300.664V19.7735H325.289ZM325.289 -5.55425V19.0699H300.664V-5.55425H325.289ZM325.289 -30.882V-6.25779H300.664V-30.882H325.289ZM325.289 -56.2098V-31.5856H300.664V-56.2098H325.289ZM325.289 -81.5376V-56.9133H300.664V-81.5376H325.289ZM22.0558 196.364H46.6802V171.74H22.0558V196.364ZM47.3838 196.364H72.0083V171.74H47.3838V196.364ZM72.7119 196.364H97.3364V171.74H72.7119V196.364ZM98.0397 196.364H122.664V171.74H98.0397V196.364ZM123.368 196.364H147.992V171.74H123.368V196.364ZM148.696 196.364H173.32V171.74H148.696V196.364ZM174.024 196.364H198.649V171.74H174.024V196.364ZM199.352 196.364H223.977V171.74H199.352V196.364ZM224.68 196.364H249.305V171.74H224.68V196.364ZM250.008 196.364H274.633V171.74H250.008V196.364ZM275.336 196.364H299.961V171.74H275.336V196.364ZM299.961 146.412V171.037H275.336V146.412H299.961ZM299.961 121.084V145.709H275.336V121.084H299.961ZM299.961 95.7567V120.381H275.336V95.7567H299.961ZM299.961 70.429V95.0534H275.336V70.429H299.961ZM299.961 45.1012V69.7254H275.336V45.1012H299.961ZM299.961 19.7735V44.3977H275.336V19.7735H299.961ZM299.961 -5.55425V19.0699H275.336V-5.55425H299.961ZM299.961 -30.882V-6.25779H275.336V-30.882H299.961ZM299.961 -56.2098V-31.5856H275.336V-56.2098H299.961ZM299.961 -81.5376V-56.9133H275.336V-81.5376H299.961ZM22.0558 171.037H46.6802V146.412H22.0558V171.037ZM47.3838 171.037H72.0083V146.412H47.3838V171.037ZM72.7119 171.037H97.3364V146.412H72.7119V171.037ZM98.0397 171.037H122.664V146.412H98.0397V171.037ZM123.368 171.037H147.992V146.412H123.368V171.037ZM148.696 171.037H173.32V146.412H148.696V171.037ZM174.024 171.037H198.649V146.412H174.024V171.037ZM199.352 171.037H223.977V146.412H199.352V171.037ZM224.68 171.037H249.305V146.412H224.68V171.037ZM250.008 171.037H274.633V146.412H250.008V171.037ZM274.633 121.084V145.709H250.008V121.084H274.633ZM274.633 95.7567V120.381H250.008V95.7567H274.633ZM274.633 70.429V95.0534H250.008V70.429H274.633ZM274.633 45.1012V69.7254H250.008V45.1012H274.633ZM274.633 19.7735V44.3977H250.008V19.7735H274.633ZM274.633 -5.55425V19.0699H250.008V-5.55425H274.633ZM274.633 -30.882V-6.25779H250.008V-30.882H274.633ZM274.633 -56.2098V-31.5856H250.008V-56.2098H274.633ZM274.633 -81.5376V-56.9133H250.008V-81.5376H274.633ZM22.0558 145.709H46.6802V121.084H22.0558V145.709ZM47.3838 145.709H72.0083V121.084H47.3838V145.709ZM72.7119 145.709H97.3364V121.084H72.7119V145.709ZM98.0397 145.709H122.664V121.084H98.0397V145.709ZM123.368 145.709H147.992V121.084H123.368V145.709ZM148.696 145.709H173.32V121.084H148.696V145.709ZM174.024 145.709H198.649V121.084H174.024V145.709ZM199.352 145.709H223.977V121.084H199.352V145.709ZM224.68 145.709H249.305V121.084H224.68V145.709ZM249.305 95.7567V120.381H224.68V95.7567H249.305ZM249.305 70.429V95.0534H224.68V70.429H249.305ZM249.305 45.1012V69.7254H224.68V45.1012H249.305ZM249.305 19.7735V44.3977H224.68V19.7735H249.305ZM249.305 -5.55425V19.0699H224.68V-5.55425H249.305ZM249.305 -30.882V-6.25779H224.68V-30.882H249.305ZM249.305 -56.2098V-31.5856H224.68V-56.2098H249.305ZM249.305 -81.5376V-56.9133H224.68V-81.5376H249.305ZM22.0558 120.381H46.6802V95.7567H22.0558V120.381ZM47.3838 120.381H72.0083V95.7567H47.3838V120.381ZM72.7119 120.381H97.3364V95.7567H72.7119V120.381ZM98.0397 120.381H122.664V95.7567H98.0397V120.381ZM123.368 120.381H147.992V95.7567H123.368V120.381ZM148.696 120.381H173.32V95.7567H148.696V120.381ZM174.024 120.381H198.649V95.7567H174.024V120.381ZM199.352 120.381H223.977V95.7567H199.352V120.381ZM223.977 70.429V95.0534H199.352V70.429H223.977ZM223.977 45.1012V69.7254H199.352V45.1012H223.977ZM223.977 19.7735V44.3977H199.352V19.7735H223.977ZM223.977 -5.55425V19.0699H199.352V-5.55425H223.977ZM223.977 -30.882V-6.25779H199.352V-30.882H223.977ZM223.977 -56.2098V-31.5856H199.352V-56.2098H223.977ZM223.977 -81.5376V-56.9133H199.352V-81.5376H223.977ZM22.0558 95.0534H46.6802V70.429H22.0558V95.0534ZM47.3838 95.0534H72.0083V70.429H47.3838V95.0534ZM72.7119 95.0534H97.3364V70.429H72.7119V95.0534ZM98.0397 95.0534H122.664V70.429H98.0397V95.0534ZM123.368 95.0534H147.992V70.429H123.368V95.0534ZM148.696 95.0534H173.32V70.429H148.696V95.0534ZM174.024 95.0534H198.649V70.429H174.024V95.0534ZM198.649 45.1012V69.7254H174.024V45.1012H198.649ZM198.649 19.7735V44.3977H174.024V19.7735H198.649ZM198.649 -5.55425V19.0699H174.024V-5.55425H198.649ZM198.649 -30.882V-6.25779H174.024V-30.882H198.649ZM198.649 -56.2098V-31.5856H174.024V-56.2098H198.649ZM198.649 -81.5376V-56.9133H174.024V-81.5376H198.649ZM22.0558 69.7254H46.6802V45.1012H22.0558V69.7254ZM47.3838 69.7254H72.0083V45.1012H47.3838V69.7254ZM72.7119 69.7254H97.3364V45.1012H72.7119V69.7254ZM98.0397 69.7254H122.664V45.1012H98.0397V69.7254ZM123.368 69.7254H147.992V45.1012H123.368V69.7254ZM148.696 69.7254H173.32V45.1012H148.696V69.7254ZM173.32 19.7735V44.3977H148.696V19.7735H173.32ZM173.32 -5.55425V19.0699H148.696V-5.55425H173.32ZM173.32 -30.882V-6.25779H148.696V-30.882H173.32ZM173.32 -56.2098V-31.5856H148.696V-56.2098H173.32ZM173.32 -81.5376V-56.9133H148.696V-81.5376H173.32ZM22.0558 44.3977H46.6802V19.7735H22.0558V44.3977ZM47.3838 44.3977H72.0083V19.7735H47.3838V44.3977ZM72.7119 44.3977H97.3364V19.7735H72.7119V44.3977ZM98.0397 44.3977H122.664V19.7735H98.0397V44.3977ZM123.368 44.3977H147.992V19.7735H123.368V44.3977ZM147.992 -5.55425V19.0699H123.368V-5.55425H147.992ZM147.992 -30.882V-6.25779H123.368V-30.882H147.992ZM147.992 -56.2098V-31.5856H123.368V-56.2098H147.992ZM147.992 -81.5376V-56.9133H123.368V-81.5376H147.992ZM22.0558 19.0699H46.6802V-5.55425H22.0558V19.0699ZM47.3838 19.0699H72.0083V-5.55425H47.3838V19.0699ZM72.7119 19.0699H97.3364V-5.55425H72.7119V19.0699ZM98.0397 19.0699H122.664V-5.55425H98.0397V19.0699ZM122.664 -30.882V-6.25779H98.0397V-30.882H122.664ZM122.664 -56.2098V-31.5856H98.0397V-56.2098H122.664ZM122.664 -81.5376V-56.9133H98.0397V-81.5376H122.664ZM22.0558 -6.2578H46.6802V-30.882H22.0558V-6.2578ZM47.3838 -6.2578H72.0083V-30.882H47.3838V-6.2578ZM72.7119 -6.2578H97.3364V-30.882H72.7119V-6.2578ZM97.3364 -56.2098V-31.5856H72.7119V-56.2098H97.3364ZM97.3364 -81.5376V-56.9133H72.7119V-81.5376H97.3364ZM22.0558 -31.5856H46.6802V-56.2098H22.0558V-31.5856ZM47.3838 -31.5856H72.0083V-56.2098H47.3838V-31.5856ZM72.0083 -81.5376V-56.9133H47.3838V-81.5376H72.0083ZM22.0558 -56.9133H46.6802V-81.5376H22.0558V-56.9133Z" fill="url(#paint0_radial_693_954)"/>
</g>
<defs>
<radialGradient id="paint0_radial_693_954" cx="0" cy="0" r="1" gradientUnits="userSpaceOnUse" gradientTransform="translate(199 146) rotate(90) scale(180.709 180.71)">
<stop stop-color="white"/>
<stop offset="1" stop-color="#7298F9" stop-opacity="0"/>
</radialGradient>
</defs>
</svg>
