<svg width="515" height="290" viewBox="0 0 515 290" fill="none" xmlns="http://www.w3.org/2000/svg">
<path d="M385.787 0.244011H514.248V72.5149L385.787 0.244011Z" stroke="url(#paint0_linear_458_13553)" stroke-opacity="0.75" stroke-width="0.722709" stroke-linejoin="round"/>
<path d="M385.787 36.3795V0.244011H321.557L385.787 36.3795Z" stroke="url(#paint1_linear_458_13553)" stroke-opacity="0.75" stroke-width="0.722709" stroke-linejoin="round"/>
<path d="M321.556 36.3795H257.325V0.244011L321.556 36.3795Z" stroke="white" stroke-opacity="0.38" stroke-width="0.722709" stroke-linejoin="round"/>
<path d="M321.556 54.4476V36.3799H289.44L321.556 54.4476Z" stroke="url(#paint2_linear_458_13553)" stroke-opacity="0.75" stroke-width="0.722709" stroke-linejoin="round"/>
<path d="M289.441 54.4475H257.325L289.441 36.3798V54.4475Z" stroke="url(#paint3_linear_458_13553)" stroke-opacity="0.75" stroke-width="0.722709" stroke-linejoin="round"/>
<path d="M289.441 72.5154V54.4476L257.325 72.5154H289.441Z" stroke="white" stroke-opacity="0.38" stroke-width="0.722709" stroke-linejoin="round"/>
<path d="M321.556 54.4476V72.5154L289.44 54.4476H321.556Z" stroke="url(#paint4_linear_458_13553)" stroke-opacity="0.75" stroke-width="0.722709" stroke-linejoin="round"/>
<path d="M385.787 36.3799V54.4476L353.672 36.3799H385.787Z" stroke="url(#paint5_linear_458_13553)" stroke-opacity="0.75" stroke-width="0.722709" stroke-linejoin="round"/>
<path d="M353.672 54.4476V36.3799H321.557L353.672 54.4476Z" stroke="url(#paint6_linear_458_13553)" stroke-opacity="0.75" stroke-width="0.722709" stroke-linejoin="round"/>
<path d="M353.672 72.5154L321.557 54.4476V72.5154H353.672Z" stroke="url(#paint7_linear_458_13553)" stroke-opacity="0.75" stroke-width="0.722709" stroke-linejoin="round"/>
<path d="M385.787 72.5154L353.672 54.4476H385.787V72.5154Z" stroke="url(#paint8_linear_458_13553)" stroke-opacity="0.75" stroke-width="0.722709" stroke-linejoin="round"/>
<path d="M385.787 108.65V72.5142L321.557 108.65H385.787Z" stroke="white" stroke-opacity="0.38" stroke-width="0.722709" stroke-linejoin="round"/>
<path d="M321.556 72.5142L257.325 108.65V72.5142H321.556Z" stroke="url(#paint9_linear_458_13553)" stroke-opacity="0.75" stroke-width="0.722709" stroke-linejoin="round"/>
<path d="M321.556 108.65H289.44L321.556 126.718V108.65Z" stroke="url(#paint10_linear_458_13553)" stroke-opacity="0.75" stroke-width="0.722709" stroke-linejoin="round"/>
<path d="M289.441 126.718H257.325V108.65L289.441 126.718Z" stroke="url(#paint11_linear_458_13553)" stroke-opacity="0.75" stroke-width="0.722709" stroke-linejoin="round"/>
<path d="M289.441 144.786V126.718L257.325 144.786H289.441Z" stroke="url(#paint12_linear_458_13553)" stroke-opacity="0.75" stroke-width="0.722709" stroke-linejoin="round"/>
<path d="M321.556 144.786H289.44V126.718L321.556 144.786Z" stroke="url(#paint13_linear_458_13553)" stroke-opacity="0.75" stroke-width="0.722709" stroke-linejoin="round"/>
<path d="M321.557 108.65L385.787 144.786V108.65H321.557Z" stroke="url(#paint14_linear_458_13553)" stroke-opacity="0.75" stroke-width="0.722709" stroke-linejoin="round"/>
<path d="M514.249 72.5141V108.65L450.018 72.5141H514.249Z" stroke="url(#paint15_linear_458_13553)" stroke-opacity="0.75" stroke-width="0.722709" stroke-linejoin="round"/>
<path d="M450.018 108.65L385.787 72.5141V108.65H450.018Z" stroke="url(#paint16_linear_458_13553)" stroke-opacity="0.75" stroke-width="0.722709" stroke-linejoin="round"/>
<path d="M450.018 108.65V144.786L385.787 108.65H450.018Z" stroke="url(#paint17_linear_458_13553)" stroke-opacity="0.75" stroke-width="0.722709" stroke-linejoin="round"/>
<path d="M514.249 108.65V144.786H450.018L514.249 108.65Z" stroke="url(#paint18_linear_458_13553)" stroke-opacity="0.75" stroke-width="0.722709" stroke-linejoin="round"/>
<path d="M257.325 36.3795V0.244011H193.095L257.325 36.3795Z" stroke="url(#paint19_linear_458_13553)" stroke-opacity="0.75" stroke-width="0.722709" stroke-linejoin="round"/>
<path d="M128.864 0.244011L193.095 36.3795V0.244011H128.864Z" stroke="url(#paint20_linear_458_13553)" stroke-opacity="0.75" stroke-width="0.722709" stroke-linejoin="round"/>
<path d="M128.864 36.3799V72.5153H193.095L128.864 36.3799Z" stroke="url(#paint21_linear_458_13553)" stroke-opacity="0.75" stroke-width="0.722709" stroke-linejoin="round"/>
<path d="M257.325 36.3798L193.095 72.5153V36.3798H257.325Z" stroke="url(#paint22_linear_458_13553)" stroke-opacity="0.75" stroke-width="0.722709" stroke-linejoin="round"/>
<path d="M0.402344 0.244011H128.864V72.5149L0.402344 0.244011Z" stroke="url(#paint23_linear_458_13553)" stroke-opacity="0.75" stroke-width="0.722709" stroke-linejoin="round"/>
<path d="M128.864 108.65V72.5142L64.6328 108.65H128.864Z" stroke="url(#paint24_linear_458_13553)" stroke-opacity="0.75" stroke-width="0.722709" stroke-linejoin="round"/>
<path d="M64.6331 72.5141V108.65H0.402344L64.6331 72.5141Z" stroke="url(#paint25_linear_458_13553)" stroke-opacity="0.75" stroke-width="0.722709" stroke-linejoin="round"/>
<path d="M64.6331 108.65V144.786H0.402344L64.6331 108.65Z" stroke="url(#paint26_linear_458_13553)" stroke-opacity="0.75" stroke-width="0.722709" stroke-linejoin="round"/>
<path d="M64.6328 108.65L128.864 144.786H64.6328V108.65Z" stroke="url(#paint27_linear_458_13553)" stroke-opacity="0.75" stroke-width="0.722709" stroke-linejoin="round"/>
<path d="M225.21 72.5141L257.325 90.5819H225.21V72.5141Z" stroke="url(#paint28_linear_458_13553)" stroke-opacity="0.75" stroke-width="0.722709" stroke-linejoin="round"/>
<path d="M193.095 90.5819L225.21 72.5141H193.095V90.5819Z" stroke="url(#paint29_linear_458_13553)" stroke-opacity="0.75" stroke-width="0.722709" stroke-linejoin="round"/>
<path d="M193.095 90.5836L225.21 108.651V90.5836H193.095Z" stroke="url(#paint30_linear_458_13553)" stroke-opacity="0.75" stroke-width="0.722709" stroke-linejoin="round"/>
<path d="M257.325 108.651V90.5836L225.21 108.651H257.325Z" stroke="url(#paint31_linear_458_13553)" stroke-opacity="0.75" stroke-width="0.722709" stroke-linejoin="round"/>
<path d="M128.864 108.65H193.095V72.5142L128.864 108.65Z" stroke="url(#paint32_linear_458_13553)" stroke-opacity="0.75" stroke-width="0.722709" stroke-linejoin="round"/>
<path d="M193.095 144.786V108.65H128.864L193.095 144.786Z" stroke="white" stroke-opacity="0.38" stroke-width="0.722709" stroke-linejoin="round"/>
<path d="M257.325 126.718V108.65L225.21 126.718H257.325Z" stroke="url(#paint33_linear_458_13553)" stroke-opacity="0.75" stroke-width="0.722709" stroke-linejoin="round"/>
<path d="M193.095 108.65L225.21 126.718H193.095V108.65Z" stroke="url(#paint34_linear_458_13553)" stroke-opacity="0.75" stroke-width="0.722709" stroke-linejoin="round"/>
<path d="M225.21 144.786V126.718H193.095L225.21 144.786Z" stroke="url(#paint35_linear_458_13553)" stroke-opacity="0.75" stroke-width="0.722709" stroke-linejoin="round"/>
<path d="M257.325 144.786L225.21 126.718H257.325V144.786Z" stroke="url(#paint36_linear_458_13553)" stroke-opacity="0.75" stroke-width="0.722709" stroke-linejoin="round"/>
<path d="M225.21 144.785V162.853H257.325L225.21 144.785Z" stroke="url(#paint37_linear_458_13553)" stroke-opacity="0.75" stroke-width="0.722709" stroke-linejoin="round"/>
<path d="M225.21 162.853H193.095V144.785L225.21 162.853Z" stroke="url(#paint38_linear_458_13553)" stroke-opacity="0.75" stroke-width="0.722709" stroke-linejoin="round"/>
<path d="M193.095 162.854H225.21L193.095 180.921V162.854Z" stroke="url(#paint39_linear_458_13553)" stroke-opacity="0.75" stroke-width="0.722709" stroke-linejoin="round"/>
<path d="M257.325 162.854L225.21 180.921H257.325V162.854Z" stroke="white" stroke-opacity="0.38" stroke-width="0.722709" stroke-linejoin="round"/>
<path d="M193.095 144.785L128.864 180.921H193.095V144.785Z" stroke="url(#paint40_linear_458_13553)" stroke-opacity="0.75" stroke-width="0.722709" stroke-linejoin="round"/>
<path d="M128.864 180.92L193.095 217.055V180.92H128.864Z" stroke="url(#paint41_linear_458_13553)" stroke-opacity="0.75" stroke-width="0.722709" stroke-linejoin="round"/>
<path d="M257.325 180.92V198.988H225.21L257.325 180.92Z" stroke="url(#paint42_linear_458_13553)" stroke-opacity="0.75" stroke-width="0.722709" stroke-linejoin="round"/>
<path d="M225.21 180.92H193.095L225.21 198.988V180.92Z" stroke="url(#paint43_linear_458_13553)" stroke-opacity="0.75" stroke-width="0.722709" stroke-linejoin="round"/>
<path d="M225.21 198.99V217.057H193.095L225.21 198.99Z" stroke="url(#paint44_linear_458_13553)" stroke-opacity="0.75" stroke-width="0.722709" stroke-linejoin="round"/>
<path d="M225.21 217.057V198.99H257.325L225.21 217.057Z" stroke="url(#paint45_linear_458_13553)" stroke-opacity="0.75" stroke-width="0.722709" stroke-linejoin="round"/>
<path d="M128.864 144.785H64.6328L128.864 180.921V144.785Z" stroke="url(#paint46_linear_458_13553)" stroke-opacity="0.75" stroke-width="0.722709" stroke-linejoin="round"/>
<path d="M64.6331 180.921L0.402344 144.785V180.921H64.6331Z" stroke="url(#paint47_linear_458_13553)" stroke-opacity="0.75" stroke-width="0.722709" stroke-linejoin="round"/>
<path d="M64.6331 217.056L0.402344 180.92V217.056H64.6331Z" stroke="url(#paint48_linear_458_13553)" stroke-opacity="0.75" stroke-width="0.722709" stroke-linejoin="round"/>
<path d="M64.6328 217.055V180.92H128.864L64.6328 217.055Z" stroke="url(#paint49_linear_458_13553)" stroke-opacity="0.75" stroke-width="0.722709" stroke-linejoin="round"/>
<path d="M128.864 289.328L0.402344 217.057H128.864V289.328Z" stroke="url(#paint50_linear_458_13553)" stroke-opacity="0.75" stroke-width="0.722709" stroke-linejoin="round"/>
<path d="M257.325 217.057V253.193H193.095L257.325 217.057Z" stroke="url(#paint51_linear_458_13553)" stroke-opacity="0.75" stroke-width="0.722709" stroke-linejoin="round"/>
<path d="M193.095 217.057H128.864V253.193L193.095 217.057Z" stroke="white" stroke-opacity="0.38" stroke-width="0.722709" stroke-linejoin="round"/>
<path d="M128.864 253.193L193.095 289.329H128.864V253.193Z" stroke="url(#paint52_linear_458_13553)" stroke-opacity="0.75" stroke-width="0.722709" stroke-linejoin="round"/>
<path d="M193.095 289.329H257.325L193.095 253.193V289.329Z" stroke="url(#paint53_linear_458_13553)" stroke-opacity="0.75" stroke-width="0.722709" stroke-linejoin="round"/>
<path d="M514.249 144.785V180.921L450.018 144.785H514.249Z" stroke="url(#paint54_linear_458_13553)" stroke-opacity="0.75" stroke-width="0.722709" stroke-linejoin="round"/>
<path d="M450.018 180.921L385.787 144.785V180.921H450.018Z" stroke="url(#paint55_linear_458_13553)" stroke-opacity="0.75" stroke-width="0.722709" stroke-linejoin="round"/>
<path d="M450.018 217.056V180.92H385.787L450.018 217.056Z" stroke="url(#paint56_linear_458_13553)" stroke-opacity="0.75" stroke-width="0.722709" stroke-linejoin="round"/>
<path d="M450.018 180.92V217.056H514.249L450.018 180.92Z" stroke="url(#paint57_linear_458_13553)" stroke-opacity="0.75" stroke-width="0.722709" stroke-linejoin="round"/>
<path d="M385.787 144.785H321.557L385.787 180.921V144.785Z" stroke="url(#paint58_linear_458_13553)" stroke-opacity="0.75" stroke-width="0.722709" stroke-linejoin="round"/>
<path d="M257.325 180.921H321.556V144.786L257.325 180.921Z" stroke="url(#paint59_linear_458_13553)" stroke-opacity="0.75" stroke-width="0.722709" stroke-linejoin="round"/>
<path d="M321.556 217.055V180.92L257.325 217.055H321.556Z" stroke="url(#paint60_linear_458_13553)" stroke-opacity="0.75" stroke-width="0.722709" stroke-linejoin="round"/>
<path d="M385.787 217.055H321.557L385.787 180.92V217.055Z" stroke="url(#paint61_linear_458_13553)" stroke-opacity="0.75" stroke-width="0.722709" stroke-linejoin="round"/>
<path d="M385.787 253.193V217.057H321.557L385.787 253.193Z" stroke="url(#paint62_linear_458_13553)" stroke-opacity="0.75" stroke-width="0.722709" stroke-linejoin="round"/>
<path d="M321.556 217.057V253.193H257.325L321.556 217.057Z" stroke="url(#paint63_linear_458_13553)" stroke-opacity="0.75" stroke-width="0.722709" stroke-linejoin="round"/>
<path d="M321.556 253.193H257.325L321.556 289.329V253.193Z" stroke="url(#paint64_linear_458_13553)" stroke-opacity="0.75" stroke-width="0.722709" stroke-linejoin="round"/>
<path d="M321.557 253.193L385.787 289.329V253.193H321.557Z" stroke="url(#paint65_linear_458_13553)" stroke-opacity="0.75" stroke-width="0.722709" stroke-linejoin="round"/>
<path d="M514.249 217.057V253.193H450.018L514.249 217.057Z" stroke="url(#paint66_linear_458_13553)" stroke-opacity="0.75" stroke-width="0.722709" stroke-linejoin="round"/>
<path d="M385.787 217.057V253.193H450.018L385.787 217.057Z" stroke="url(#paint67_linear_458_13553)" stroke-opacity="0.75" stroke-width="0.722709" stroke-linejoin="round"/>
<path d="M385.787 289.329V253.193H450.018L385.787 289.329Z" stroke="url(#paint68_linear_458_13553)" stroke-opacity="0.75" stroke-width="0.722709" stroke-linejoin="round"/>
<path d="M514.249 289.329H450.018L514.249 253.193V289.329Z" stroke="url(#paint69_linear_458_13553)" stroke-opacity="0.75" stroke-width="0.722709" stroke-linejoin="round"/>
<defs>
<linearGradient id="paint0_linear_458_13553" x1="450.018" y1="0.244011" x2="450.018" y2="72.5149" gradientUnits="userSpaceOnUse">
<stop stop-color="#6B6B6B"/>
<stop offset="1" stop-color="#232323"/>
</linearGradient>
<linearGradient id="paint1_linear_458_13553" x1="353.672" y1="0.244011" x2="353.672" y2="36.3795" gradientUnits="userSpaceOnUse">
<stop stop-color="#6B6B6B"/>
<stop offset="1" stop-color="#232323"/>
</linearGradient>
<linearGradient id="paint2_linear_458_13553" x1="305.498" y1="36.3799" x2="305.498" y2="54.4476" gradientUnits="userSpaceOnUse">
<stop stop-color="#6B6B6B"/>
<stop offset="1" stop-color="#232323"/>
</linearGradient>
<linearGradient id="paint3_linear_458_13553" x1="273.383" y1="36.3798" x2="273.383" y2="54.4475" gradientUnits="userSpaceOnUse">
<stop stop-color="#6B6B6B"/>
<stop offset="1" stop-color="#232323"/>
</linearGradient>
<linearGradient id="paint4_linear_458_13553" x1="305.498" y1="54.4476" x2="305.498" y2="72.5154" gradientUnits="userSpaceOnUse">
<stop stop-color="#6B6B6B"/>
<stop offset="1" stop-color="#232323"/>
</linearGradient>
<linearGradient id="paint5_linear_458_13553" x1="369.73" y1="36.3799" x2="369.73" y2="54.4476" gradientUnits="userSpaceOnUse">
<stop stop-color="#6B6B6B"/>
<stop offset="1" stop-color="#232323"/>
</linearGradient>
<linearGradient id="paint6_linear_458_13553" x1="337.614" y1="36.3799" x2="337.614" y2="54.4476" gradientUnits="userSpaceOnUse">
<stop stop-color="#6B6B6B"/>
<stop offset="1" stop-color="#232323"/>
</linearGradient>
<linearGradient id="paint7_linear_458_13553" x1="337.614" y1="54.4476" x2="337.614" y2="72.5154" gradientUnits="userSpaceOnUse">
<stop stop-color="#6B6B6B"/>
<stop offset="1" stop-color="#232323"/>
</linearGradient>
<linearGradient id="paint8_linear_458_13553" x1="369.73" y1="54.4476" x2="369.73" y2="72.5154" gradientUnits="userSpaceOnUse">
<stop stop-color="#6B6B6B"/>
<stop offset="1" stop-color="#232323"/>
</linearGradient>
<linearGradient id="paint9_linear_458_13553" x1="289.441" y1="72.5142" x2="289.441" y2="108.65" gradientUnits="userSpaceOnUse">
<stop stop-color="#6B6B6B"/>
<stop offset="1" stop-color="#232323"/>
</linearGradient>
<linearGradient id="paint10_linear_458_13553" x1="305.498" y1="108.65" x2="305.498" y2="126.718" gradientUnits="userSpaceOnUse">
<stop stop-color="#6B6B6B"/>
<stop offset="1" stop-color="#232323"/>
</linearGradient>
<linearGradient id="paint11_linear_458_13553" x1="273.383" y1="108.65" x2="273.383" y2="126.718" gradientUnits="userSpaceOnUse">
<stop stop-color="#6B6B6B"/>
<stop offset="1" stop-color="#232323"/>
</linearGradient>
<linearGradient id="paint12_linear_458_13553" x1="273.383" y1="126.718" x2="273.383" y2="144.786" gradientUnits="userSpaceOnUse">
<stop stop-color="#6B6B6B"/>
<stop offset="1" stop-color="#232323"/>
</linearGradient>
<linearGradient id="paint13_linear_458_13553" x1="305.498" y1="126.718" x2="305.498" y2="144.786" gradientUnits="userSpaceOnUse">
<stop stop-color="#6B6B6B"/>
<stop offset="1" stop-color="#232323"/>
</linearGradient>
<linearGradient id="paint14_linear_458_13553" x1="353.672" y1="108.65" x2="353.672" y2="144.786" gradientUnits="userSpaceOnUse">
<stop stop-color="#6B6B6B"/>
<stop offset="1" stop-color="#232323"/>
</linearGradient>
<linearGradient id="paint15_linear_458_13553" x1="482.133" y1="72.5141" x2="482.133" y2="108.65" gradientUnits="userSpaceOnUse">
<stop stop-color="#6B6B6B"/>
<stop offset="1" stop-color="#232323"/>
</linearGradient>
<linearGradient id="paint16_linear_458_13553" x1="417.902" y1="72.5141" x2="417.902" y2="108.65" gradientUnits="userSpaceOnUse">
<stop stop-color="#6B6B6B"/>
<stop offset="1" stop-color="#232323"/>
</linearGradient>
<linearGradient id="paint17_linear_458_13553" x1="417.902" y1="108.65" x2="417.902" y2="144.786" gradientUnits="userSpaceOnUse">
<stop stop-color="#6B6B6B"/>
<stop offset="1" stop-color="#232323"/>
</linearGradient>
<linearGradient id="paint18_linear_458_13553" x1="482.133" y1="108.65" x2="482.133" y2="144.786" gradientUnits="userSpaceOnUse">
<stop stop-color="#6B6B6B"/>
<stop offset="1" stop-color="#232323"/>
</linearGradient>
<linearGradient id="paint19_linear_458_13553" x1="225.21" y1="0.244011" x2="225.21" y2="36.3795" gradientUnits="userSpaceOnUse">
<stop stop-color="#6B6B6B"/>
<stop offset="1" stop-color="#232323"/>
</linearGradient>
<linearGradient id="paint20_linear_458_13553" x1="160.98" y1="0.244011" x2="160.98" y2="36.3795" gradientUnits="userSpaceOnUse">
<stop stop-color="#6B6B6B"/>
<stop offset="1" stop-color="#232323"/>
</linearGradient>
<linearGradient id="paint21_linear_458_13553" x1="160.98" y1="36.3799" x2="160.98" y2="72.5153" gradientUnits="userSpaceOnUse">
<stop stop-color="#6B6B6B"/>
<stop offset="1" stop-color="#232323"/>
</linearGradient>
<linearGradient id="paint22_linear_458_13553" x1="225.21" y1="36.3798" x2="225.21" y2="72.5153" gradientUnits="userSpaceOnUse">
<stop stop-color="#6B6B6B"/>
<stop offset="1" stop-color="#232323"/>
</linearGradient>
<linearGradient id="paint23_linear_458_13553" x1="64.6331" y1="0.244011" x2="64.6331" y2="72.5149" gradientUnits="userSpaceOnUse">
<stop stop-color="#6B6B6B"/>
<stop offset="1" stop-color="#232323"/>
</linearGradient>
<linearGradient id="paint24_linear_458_13553" x1="96.7482" y1="72.5142" x2="96.7482" y2="108.65" gradientUnits="userSpaceOnUse">
<stop stop-color="#6B6B6B"/>
<stop offset="1" stop-color="#232323"/>
</linearGradient>
<linearGradient id="paint25_linear_458_13553" x1="32.5177" y1="72.5141" x2="32.5177" y2="108.65" gradientUnits="userSpaceOnUse">
<stop stop-color="#6B6B6B"/>
<stop offset="1" stop-color="#232323"/>
</linearGradient>
<linearGradient id="paint26_linear_458_13553" x1="32.5177" y1="108.65" x2="32.5177" y2="144.786" gradientUnits="userSpaceOnUse">
<stop stop-color="#6B6B6B"/>
<stop offset="1" stop-color="#232323"/>
</linearGradient>
<linearGradient id="paint27_linear_458_13553" x1="96.7482" y1="108.65" x2="96.7482" y2="144.786" gradientUnits="userSpaceOnUse">
<stop stop-color="#6B6B6B"/>
<stop offset="1" stop-color="#232323"/>
</linearGradient>
<linearGradient id="paint28_linear_458_13553" x1="241.268" y1="72.5141" x2="241.268" y2="90.5819" gradientUnits="userSpaceOnUse">
<stop stop-color="#6B6B6B"/>
<stop offset="1" stop-color="#232323"/>
</linearGradient>
<linearGradient id="paint29_linear_458_13553" x1="209.152" y1="72.5141" x2="209.152" y2="90.5819" gradientUnits="userSpaceOnUse">
<stop stop-color="#6B6B6B"/>
<stop offset="1" stop-color="#232323"/>
</linearGradient>
<linearGradient id="paint30_linear_458_13553" x1="209.152" y1="90.5836" x2="209.152" y2="108.651" gradientUnits="userSpaceOnUse">
<stop stop-color="#6B6B6B"/>
<stop offset="1" stop-color="#232323"/>
</linearGradient>
<linearGradient id="paint31_linear_458_13553" x1="241.268" y1="90.5836" x2="241.268" y2="108.651" gradientUnits="userSpaceOnUse">
<stop stop-color="#6B6B6B"/>
<stop offset="1" stop-color="#232323"/>
</linearGradient>
<linearGradient id="paint32_linear_458_13553" x1="160.98" y1="72.5142" x2="160.98" y2="108.65" gradientUnits="userSpaceOnUse">
<stop stop-color="#6B6B6B"/>
<stop offset="1" stop-color="#232323"/>
</linearGradient>
<linearGradient id="paint33_linear_458_13553" x1="241.268" y1="108.65" x2="241.268" y2="126.718" gradientUnits="userSpaceOnUse">
<stop stop-color="#6B6B6B"/>
<stop offset="1" stop-color="#232323"/>
</linearGradient>
<linearGradient id="paint34_linear_458_13553" x1="209.152" y1="108.65" x2="209.152" y2="126.718" gradientUnits="userSpaceOnUse">
<stop stop-color="#6B6B6B"/>
<stop offset="1" stop-color="#232323"/>
</linearGradient>
<linearGradient id="paint35_linear_458_13553" x1="209.152" y1="126.718" x2="209.152" y2="144.786" gradientUnits="userSpaceOnUse">
<stop stop-color="#6B6B6B"/>
<stop offset="1" stop-color="#232323"/>
</linearGradient>
<linearGradient id="paint36_linear_458_13553" x1="241.268" y1="126.718" x2="241.268" y2="144.786" gradientUnits="userSpaceOnUse">
<stop stop-color="#6B6B6B"/>
<stop offset="1" stop-color="#232323"/>
</linearGradient>
<linearGradient id="paint37_linear_458_13553" x1="241.268" y1="144.785" x2="241.268" y2="162.853" gradientUnits="userSpaceOnUse">
<stop stop-color="#6B6B6B"/>
<stop offset="1" stop-color="#232323"/>
</linearGradient>
<linearGradient id="paint38_linear_458_13553" x1="209.152" y1="144.785" x2="209.152" y2="162.853" gradientUnits="userSpaceOnUse">
<stop stop-color="#6B6B6B"/>
<stop offset="1" stop-color="#232323"/>
</linearGradient>
<linearGradient id="paint39_linear_458_13553" x1="209.152" y1="162.854" x2="209.152" y2="180.921" gradientUnits="userSpaceOnUse">
<stop stop-color="#6B6B6B"/>
<stop offset="1" stop-color="#232323"/>
</linearGradient>
<linearGradient id="paint40_linear_458_13553" x1="160.98" y1="144.785" x2="160.98" y2="180.921" gradientUnits="userSpaceOnUse">
<stop stop-color="#6B6B6B"/>
<stop offset="1" stop-color="#232323"/>
</linearGradient>
<linearGradient id="paint41_linear_458_13553" x1="160.98" y1="180.92" x2="160.98" y2="217.055" gradientUnits="userSpaceOnUse">
<stop stop-color="#6B6B6B"/>
<stop offset="1" stop-color="#232323"/>
</linearGradient>
<linearGradient id="paint42_linear_458_13553" x1="241.268" y1="180.92" x2="241.268" y2="198.988" gradientUnits="userSpaceOnUse">
<stop stop-color="#6B6B6B"/>
<stop offset="1" stop-color="#232323"/>
</linearGradient>
<linearGradient id="paint43_linear_458_13553" x1="209.152" y1="180.92" x2="209.152" y2="198.988" gradientUnits="userSpaceOnUse">
<stop stop-color="#6B6B6B"/>
<stop offset="1" stop-color="#232323"/>
</linearGradient>
<linearGradient id="paint44_linear_458_13553" x1="209.152" y1="198.99" x2="209.152" y2="217.057" gradientUnits="userSpaceOnUse">
<stop stop-color="#6B6B6B"/>
<stop offset="1" stop-color="#232323"/>
</linearGradient>
<linearGradient id="paint45_linear_458_13553" x1="241.268" y1="198.99" x2="241.268" y2="217.057" gradientUnits="userSpaceOnUse">
<stop stop-color="#6B6B6B"/>
<stop offset="1" stop-color="#232323"/>
</linearGradient>
<linearGradient id="paint46_linear_458_13553" x1="96.7482" y1="144.785" x2="96.7482" y2="180.921" gradientUnits="userSpaceOnUse">
<stop stop-color="#6B6B6B"/>
<stop offset="1" stop-color="#232323"/>
</linearGradient>
<linearGradient id="paint47_linear_458_13553" x1="32.5177" y1="144.785" x2="32.5177" y2="180.921" gradientUnits="userSpaceOnUse">
<stop stop-color="#6B6B6B"/>
<stop offset="1" stop-color="#232323"/>
</linearGradient>
<linearGradient id="paint48_linear_458_13553" x1="32.5177" y1="180.92" x2="32.5177" y2="217.056" gradientUnits="userSpaceOnUse">
<stop stop-color="#6B6B6B"/>
<stop offset="1" stop-color="#232323"/>
</linearGradient>
<linearGradient id="paint49_linear_458_13553" x1="96.7482" y1="180.92" x2="96.7482" y2="217.055" gradientUnits="userSpaceOnUse">
<stop stop-color="#6B6B6B"/>
<stop offset="1" stop-color="#232323"/>
</linearGradient>
<linearGradient id="paint50_linear_458_13553" x1="64.6331" y1="217.057" x2="64.6331" y2="289.328" gradientUnits="userSpaceOnUse">
<stop stop-color="#6B6B6B"/>
<stop offset="1" stop-color="#232323"/>
</linearGradient>
<linearGradient id="paint51_linear_458_13553" x1="225.21" y1="217.057" x2="225.21" y2="253.193" gradientUnits="userSpaceOnUse">
<stop stop-color="#6B6B6B"/>
<stop offset="1" stop-color="#232323"/>
</linearGradient>
<linearGradient id="paint52_linear_458_13553" x1="160.98" y1="253.193" x2="160.98" y2="289.329" gradientUnits="userSpaceOnUse">
<stop stop-color="#6B6B6B"/>
<stop offset="1" stop-color="#232323"/>
</linearGradient>
<linearGradient id="paint53_linear_458_13553" x1="225.21" y1="253.193" x2="225.21" y2="289.329" gradientUnits="userSpaceOnUse">
<stop stop-color="#6B6B6B"/>
<stop offset="1" stop-color="#232323"/>
</linearGradient>
<linearGradient id="paint54_linear_458_13553" x1="482.133" y1="144.785" x2="482.133" y2="180.921" gradientUnits="userSpaceOnUse">
<stop stop-color="#6B6B6B"/>
<stop offset="1" stop-color="#232323"/>
</linearGradient>
<linearGradient id="paint55_linear_458_13553" x1="417.902" y1="144.785" x2="417.902" y2="180.921" gradientUnits="userSpaceOnUse">
<stop stop-color="#6B6B6B"/>
<stop offset="1" stop-color="#232323"/>
</linearGradient>
<linearGradient id="paint56_linear_458_13553" x1="417.902" y1="180.92" x2="417.902" y2="217.056" gradientUnits="userSpaceOnUse">
<stop stop-color="#6B6B6B"/>
<stop offset="1" stop-color="#232323"/>
</linearGradient>
<linearGradient id="paint57_linear_458_13553" x1="482.133" y1="180.92" x2="482.133" y2="217.056" gradientUnits="userSpaceOnUse">
<stop stop-color="#6B6B6B"/>
<stop offset="1" stop-color="#232323"/>
</linearGradient>
<linearGradient id="paint58_linear_458_13553" x1="353.672" y1="144.785" x2="353.672" y2="180.921" gradientUnits="userSpaceOnUse">
<stop stop-color="#6B6B6B"/>
<stop offset="1" stop-color="#232323"/>
</linearGradient>
<linearGradient id="paint59_linear_458_13553" x1="289.441" y1="144.786" x2="289.441" y2="180.921" gradientUnits="userSpaceOnUse">
<stop stop-color="#6B6B6B"/>
<stop offset="1" stop-color="#232323"/>
</linearGradient>
<linearGradient id="paint60_linear_458_13553" x1="289.441" y1="180.92" x2="289.441" y2="217.055" gradientUnits="userSpaceOnUse">
<stop stop-color="#6B6B6B"/>
<stop offset="1" stop-color="#232323"/>
</linearGradient>
<linearGradient id="paint61_linear_458_13553" x1="353.672" y1="180.92" x2="353.672" y2="217.055" gradientUnits="userSpaceOnUse">
<stop stop-color="#6B6B6B"/>
<stop offset="1" stop-color="#232323"/>
</linearGradient>
<linearGradient id="paint62_linear_458_13553" x1="353.672" y1="217.057" x2="353.672" y2="253.193" gradientUnits="userSpaceOnUse">
<stop stop-color="#6B6B6B"/>
<stop offset="1" stop-color="#232323"/>
</linearGradient>
<linearGradient id="paint63_linear_458_13553" x1="289.441" y1="217.057" x2="289.441" y2="253.193" gradientUnits="userSpaceOnUse">
<stop stop-color="#6B6B6B"/>
<stop offset="1" stop-color="#232323"/>
</linearGradient>
<linearGradient id="paint64_linear_458_13553" x1="289.441" y1="253.193" x2="289.441" y2="289.329" gradientUnits="userSpaceOnUse">
<stop stop-color="#6B6B6B"/>
<stop offset="1" stop-color="#232323"/>
</linearGradient>
<linearGradient id="paint65_linear_458_13553" x1="353.672" y1="253.193" x2="353.672" y2="289.329" gradientUnits="userSpaceOnUse">
<stop stop-color="#6B6B6B"/>
<stop offset="1" stop-color="#232323"/>
</linearGradient>
<linearGradient id="paint66_linear_458_13553" x1="482.133" y1="217.057" x2="482.133" y2="253.193" gradientUnits="userSpaceOnUse">
<stop stop-color="#6B6B6B"/>
<stop offset="1" stop-color="#232323"/>
</linearGradient>
<linearGradient id="paint67_linear_458_13553" x1="417.902" y1="217.057" x2="417.902" y2="253.193" gradientUnits="userSpaceOnUse">
<stop stop-color="#6B6B6B"/>
<stop offset="1" stop-color="#232323"/>
</linearGradient>
<linearGradient id="paint68_linear_458_13553" x1="417.902" y1="253.193" x2="417.902" y2="289.329" gradientUnits="userSpaceOnUse">
<stop stop-color="#6B6B6B"/>
<stop offset="1" stop-color="#232323"/>
</linearGradient>
<linearGradient id="paint69_linear_458_13553" x1="482.133" y1="253.193" x2="482.133" y2="289.329" gradientUnits="userSpaceOnUse">
<stop stop-color="#6B6B6B"/>
<stop offset="1" stop-color="#232323"/>
</linearGradient>
</defs>
</svg>
