<svg width="45" height="41" viewBox="0 0 45 41" fill="none" xmlns="http://www.w3.org/2000/svg">
<path d="M4.28476 15.3976C4.97929 15.5689 5.73407 15.6552 6.54908 15.6552C7.3641 15.6552 8.12714 15.5689 8.79215 15.3976C9.45834 15.2262 10.0229 14.9792 10.4883 14.6565C10.9537 14.3339 11.3069 13.9332 11.5514 13.4534C11.7947 12.9736 11.9164 12.4264 11.9164 11.8106C11.9164 10.9089 11.6908 10.2033 11.2396 9.69512C10.7883 9.18693 10.1482 8.78628 9.31778 8.492C8.48741 8.1989 7.50702 7.93771 6.37663 7.70843C5.24624 7.47915 4.3261 7.23924 3.61739 6.98868C2.90868 6.73813 2.39014 6.4013 2.06059 5.97938C1.73104 5.55746 1.56685 4.98072 1.56685 4.25033C1.56685 3.14767 1.95664 2.26364 2.7374 1.59708C3.51698 0.931694 4.77377 0.598412 6.50538 0.598412C6.96368 0.598412 7.38182 0.626777 7.76098 0.684688C8.14014 0.742599 8.49803 0.834783 8.83467 0.963605C9.17013 1.09243 9.49259 1.26852 9.80088 1.48953C10.108 1.71172 10.4127 1.98709 10.7139 2.31682L10.9927 2.01663C10.5923 1.57226 10.1659 1.21888 9.71584 0.952968C9.26463 0.688233 8.77089 0.49441 8.23463 0.372679C7.69837 0.250948 7.10778 0.190674 6.46404 0.190674C5.39034 0.190674 4.45248 0.349042 3.65164 0.663414C2.84961 0.978969 2.23068 1.43989 1.79482 2.04854C1.35778 2.6572 1.14044 3.40531 1.14044 4.29288C1.14044 5.18045 1.34479 5.79974 1.7523 6.27957C2.1598 6.7594 2.75749 7.13169 3.54534 7.39642C4.332 7.66116 5.28404 7.90107 6.40025 8.11617C7.57317 8.34545 8.53584 8.60664 9.28825 8.89974C10.0395 9.19402 10.5946 9.57339 10.9525 10.0379C11.3104 10.5035 11.4888 11.1157 11.4888 11.8745C11.4888 13.0055 11.0482 13.8576 10.1682 14.4308C9.28825 15.004 8.08935 15.29 6.57153 15.29C5.99865 15.29 5.45531 15.2475 4.94031 15.1612C4.42532 15.0749 3.93512 14.939 3.46974 14.7534C3.00435 14.5679 2.56377 14.3315 2.14918 14.0443C1.7334 13.7583 1.33298 13.4144 0.946728 13.0138L0.624268 13.2927C1.16761 13.8221 1.74048 14.263 2.34171 14.614C2.94293 14.965 3.59022 15.2262 4.28476 15.3976Z" fill="#F2F2F3"/>
<path d="M6.55024 15.7496C5.7305 15.7496 4.96037 15.6621 4.26229 15.4884C3.56303 15.3158 2.90038 15.0487 2.29444 14.6942C1.68967 14.342 1.10617 13.8917 0.5581 13.3587L0.484863 13.2866L0.952615 12.8812L1.01522 12.9462C1.39674 13.3421 1.79598 13.6849 2.20231 13.965C2.60981 14.2463 3.04803 14.4814 3.50397 14.6634C3.9599 14.8466 4.44892 14.9814 4.95446 15.0665C5.46237 15.1516 6.00572 15.1941 6.57032 15.1941C8.06098 15.1941 9.25397 14.9105 10.1151 14.3503C10.9631 13.7983 11.3931 12.9651 11.3931 11.8743C11.3931 11.1403 11.2195 10.5423 10.8757 10.0956C10.5297 9.64649 9.98395 9.27302 9.25279 8.98702C8.50865 8.69628 7.54244 8.43509 6.38134 8.20818C5.26276 7.99308 4.29773 7.74962 3.51342 7.48606C2.71376 7.2166 2.096 6.83132 1.67904 6.34085C1.25736 5.84565 1.04475 5.15664 1.04475 4.2927C1.04475 3.42877 1.27153 2.61447 1.71684 1.99282C2.16215 1.37235 2.80117 0.894879 3.61618 0.574597C4.42647 0.256679 5.38441 0.0959473 6.46401 0.0959473C7.1113 0.0959473 7.71371 0.158585 8.25587 0.280316C8.8004 0.40441 9.3083 0.602961 9.76424 0.871242C10.2202 1.13952 10.6572 1.50353 11.0635 1.95264L11.1214 2.01764L10.7139 2.45729L10.6442 2.38165C10.3489 2.05782 10.0465 1.78481 9.74653 1.56735C9.44651 1.35107 9.12877 1.17734 8.80276 1.05207C8.47439 0.926789 8.12003 0.834604 7.74914 0.777875C7.37589 0.722328 6.95775 0.693964 6.50772 0.693964C4.80681 0.693964 3.55948 1.02252 2.80116 1.67017C2.04757 2.3131 1.66487 3.18176 1.66487 4.25015C1.66487 4.95572 1.82433 5.51828 2.13852 5.92129C2.45508 6.32667 2.96417 6.6564 3.65162 6.89987C4.3556 7.14805 5.28047 7.38915 6.39787 7.61607C7.5259 7.84535 8.52046 8.11008 9.35201 8.40436C10.193 8.70101 10.8533 9.11584 11.3128 9.63349C11.7782 10.157 12.0132 10.891 12.0132 11.8128C12.0132 12.4404 11.8868 13.0077 11.6376 13.4993C11.3884 13.991 11.021 14.407 10.545 14.7367C10.0725 15.0641 9.49139 15.3182 8.81811 15.4919C8.1472 15.6645 7.38534 15.7531 6.55142 15.7531L6.55024 15.7496ZM0.764807 13.2949C1.2798 13.7865 1.82551 14.2013 2.39011 14.5299C2.9807 14.875 3.62563 15.135 4.30835 15.3028C4.99108 15.4718 5.74586 15.5581 6.55024 15.5581C7.35463 15.5581 8.11531 15.473 8.76969 15.3028C9.42052 15.135 9.9804 14.8904 10.4352 14.576C10.8852 14.264 11.2325 13.8716 11.4675 13.4083C11.7026 12.9439 11.8219 12.4061 11.8219 11.8081C11.8219 10.9347 11.6022 10.2433 11.1687 9.75522C10.7304 9.26121 10.0973 8.86528 9.28704 8.57809C8.46376 8.28736 7.47747 8.02499 6.35771 7.79807C5.23086 7.56998 4.29891 7.32651 3.58665 7.07478C2.86377 6.8195 2.32633 6.46967 1.98733 6.03357C1.64715 5.59628 1.47352 4.99472 1.47352 4.24661C1.47352 3.11912 1.87866 2.20319 2.67714 1.52126C3.47089 0.842877 4.75957 0.50014 6.50654 0.50014C6.9672 0.50014 7.39479 0.529687 7.77631 0.586416C8.16138 0.644327 8.5299 0.740056 8.87008 0.871242C9.21145 1.00243 9.54336 1.18325 9.85756 1.40898C10.1446 1.61581 10.4328 1.87345 10.7151 2.17364L10.8651 2.01173C10.4883 1.60635 10.0867 1.27662 9.66856 1.03079C9.22916 0.771967 8.74015 0.580507 8.21453 0.46114C7.68654 0.341773 7.09713 0.280316 6.4652 0.280316C5.40922 0.280316 4.4749 0.437502 3.68705 0.745966C2.90629 1.05325 2.29562 1.50826 1.87275 2.09918C1.44989 2.68893 1.2361 3.42522 1.2361 4.28916C1.2361 5.107 1.43454 5.75465 1.82551 6.21439C2.22002 6.67886 2.80944 7.04523 3.57603 7.30288C4.35088 7.56407 5.30763 7.80635 6.41913 8.01908C7.59204 8.24718 8.56888 8.51309 9.32366 8.80737C10.0879 9.10638 10.6608 9.49994 11.0281 9.97622C11.3978 10.4572 11.5844 11.0943 11.5844 11.8707C11.5844 13.0313 11.125 13.9177 10.2214 14.5063C9.32956 15.0866 8.10232 15.3808 6.57269 15.3808C5.99745 15.3808 5.44347 15.3371 4.92493 15.2508C4.40521 15.1634 3.90321 15.0251 3.43428 14.8372C2.96417 14.6493 2.51414 14.407 2.09482 14.1186C1.7003 13.8468 1.31169 13.5171 0.940802 13.14L0.764807 13.2925V13.2949Z" fill="#F2F2F3"/>
<path d="M18.1214 15.0749C17.7777 15.2463 17.356 15.3325 16.8552 15.3325C16.4831 15.3325 16.1464 15.2203 15.8464 14.9957C15.5464 14.7712 15.381 14.4497 15.3527 14.0301V4.82825H18.0363V4.39806H15.3527V0.509766H14.9239V4.39806H13.314V4.82825H14.9239V14.0266C14.9239 14.3741 15.0125 14.6778 15.192 14.9378C15.3704 15.1978 15.6066 15.4011 15.9008 15.5453C16.1937 15.6895 16.5126 15.7616 16.8563 15.7616C17.2568 15.7616 17.6076 15.7107 17.9088 15.6115C18.21 15.511 18.5383 15.3538 18.8962 15.1387L18.66 14.7948C18.6458 14.809 18.4663 14.9024 18.1237 15.0737L18.1214 15.0749Z" fill="#F2F2F3"/>
<path d="M16.8549 15.8573C16.4994 15.8573 16.1639 15.7805 15.858 15.6304C15.5509 15.4779 15.3005 15.264 15.1139 14.991C14.9249 14.7156 14.8292 14.3918 14.8292 14.0254V4.92164H13.2192V4.30235H14.8292V0.414062H15.4481V4.30235H18.1318V4.92164H15.4481V14.029C15.4753 14.4166 15.6241 14.7097 15.9041 14.9189C16.1864 15.1293 16.5077 15.2368 16.8561 15.2368C17.3404 15.2368 17.7526 15.1529 18.0798 14.9887C18.5086 14.7747 18.5865 14.7298 18.6007 14.7204L18.681 14.64L18.7377 14.7416L19.0307 15.1683L18.9444 15.2203C18.5818 15.4378 18.244 15.5997 17.9381 15.7013C17.6286 15.8041 17.2648 15.8561 16.8561 15.8561L16.8549 15.8573ZM13.407 4.73373H15.017V14.0266C15.017 14.3528 15.102 14.6412 15.2686 14.8847C15.4363 15.1293 15.6631 15.3231 15.9407 15.4602C16.2206 15.5973 16.5277 15.667 16.8537 15.667C17.2424 15.667 17.5861 15.6186 17.8755 15.5217C18.1436 15.4318 18.4401 15.2936 18.7578 15.1092L18.6291 14.9225C18.5546 14.9627 18.4188 15.0324 18.1637 15.16C17.8081 15.3385 17.3676 15.4283 16.8537 15.4283C16.4628 15.4283 16.1049 15.3089 15.7883 15.0726C15.4658 14.8315 15.2863 14.484 15.2568 14.0373V4.73373H17.9404V4.49381H15.2568V0.605522H15.017V4.49381H13.407V4.73373Z" fill="#F2F2F3"/>
<path d="M21.8779 15.3113C22.4212 15.6115 23.0295 15.7628 23.7028 15.7628C24.6761 15.7628 25.5773 15.576 26.4077 15.2038C27.2381 14.8315 27.9102 14.3162 28.4263 13.6567V14.6873C28.4263 14.874 28.4689 15.0419 28.5551 15.1919C28.6413 15.342 28.7547 15.446 28.8988 15.504C28.9272 15.5181 28.9626 15.5288 29.0063 15.5359C29.0488 15.543 29.1138 15.5465 29.2 15.5465V15.1163C29.0996 15.1163 29.0181 15.0809 28.9532 15.0088C28.8882 14.9367 28.8563 14.8303 28.8563 14.6861V8.52158C28.8563 7.20381 28.4878 6.15906 27.7507 5.38494C27.0137 4.61201 26.0226 4.22437 24.7777 4.22437C24.2048 4.22437 23.5965 4.3461 22.9527 4.58956C22.309 4.83302 21.6286 5.19821 20.9128 5.68513L21.1703 6.02905C21.7999 5.58586 22.4259 5.24548 23.0484 5.00911C23.6709 4.77274 24.2473 4.65456 24.7765 4.65456C25.8785 4.65456 26.7621 5.00911 27.4282 5.71823C28.0932 6.42734 28.4263 7.361 28.4263 8.52158V9.78852C27.896 9.58879 27.2995 9.43397 26.6333 9.32642C25.9671 9.21887 25.3198 9.16569 24.6903 9.16569C23.7878 9.16569 22.9941 9.3016 22.3066 9.57342C21.6192 9.84525 21.0794 10.2175 20.6861 10.6903C20.2927 11.163 20.0955 11.7138 20.0955 12.3449C20.0955 12.976 20.2561 13.5515 20.5786 14.0739C20.901 14.5975 21.3333 15.0088 21.8779 15.3089V15.3113ZM21.6735 10.3487C22.4389 9.84762 23.4453 9.59706 24.6903 9.59706C25.3624 9.59706 26.0108 9.65025 26.6333 9.75779C27.2558 9.86534 27.8535 10.0332 28.4263 10.2624V12.4749C28.4263 12.6037 28.4015 12.7432 28.3508 12.8932C28.3 13.0433 28.2185 13.1982 28.1039 13.3553C27.7176 13.9569 27.127 14.4367 26.3333 14.7948C25.5384 15.1529 24.6619 15.3314 23.7028 15.3314C23.1157 15.3314 22.5795 15.199 22.0928 14.9343C21.6062 14.6696 21.2235 14.3115 20.9447 13.86C20.666 13.4085 20.5266 12.9039 20.5266 12.346C20.5266 11.5152 20.9093 10.8498 21.6747 10.3487H21.6735Z" fill="#F2F2F3"/>
<path d="M23.7035 15.8573C23.0184 15.8573 22.3877 15.7013 21.8325 15.394C21.2762 15.0855 20.8274 14.6589 20.499 14.1259C20.1694 13.5905 20.0017 12.9925 20.0017 12.3472C20.0017 11.7019 20.2072 11.1192 20.6136 10.6323C21.0152 10.1501 21.5727 9.76482 22.2719 9.48827C22.9677 9.2129 23.7815 9.07344 24.6898 9.07344C25.3218 9.07344 25.9809 9.1278 26.6482 9.23535C27.2624 9.33463 27.827 9.47527 28.3302 9.65491V8.52388C28.3302 7.39403 28.003 6.47337 27.3581 5.78553C26.7144 5.10006 25.8462 4.75259 24.7761 4.75259C24.2611 4.75259 23.6905 4.8696 23.081 5.10006C22.468 5.33288 21.8432 5.67207 21.2242 6.10936L21.1486 6.16254L20.7766 5.66498L20.8592 5.60943C21.5774 5.12133 22.2696 4.74905 22.9181 4.5044C23.5712 4.2574 24.1961 4.1333 24.7772 4.1333C26.0435 4.1333 27.0675 4.53395 27.8188 5.32224C28.57 6.11054 28.9515 7.18721 28.9515 8.52388V14.6884C28.9515 14.8066 28.9752 14.8941 29.0236 14.9472C29.0708 14.9992 29.1263 15.0229 29.2008 15.0229H29.2953V15.6422H29.2008C29.1063 15.6422 29.0389 15.6386 28.9917 15.6304C28.9397 15.6221 28.8948 15.6079 28.857 15.589C28.7023 15.5275 28.57 15.4093 28.4743 15.2403C28.3798 15.0761 28.3326 14.8905 28.3326 14.6884V13.9214C27.833 14.4934 27.201 14.9532 26.4486 15.2912C25.61 15.667 24.6863 15.8573 23.7047 15.8573H23.7035ZM21.9247 15.2285C22.4515 15.5193 23.0503 15.6682 23.7035 15.6682C24.6579 15.6682 25.5556 15.4838 26.3695 15.1174C27.1809 14.7534 27.8483 14.2429 28.3515 13.5988L28.5216 13.3825V14.6884C28.5216 14.8574 28.5606 15.0111 28.6373 15.1458C28.7129 15.2782 28.8098 15.3668 28.9338 15.4164C28.961 15.4306 28.9882 15.4377 29.0212 15.4436C29.0425 15.4472 29.0696 15.4495 29.1051 15.4519V15.2049C29.0189 15.1872 28.9433 15.1434 28.8818 15.0749C28.8027 14.9862 28.7614 14.8562 28.7614 14.6896V8.52506C28.7614 7.23921 28.3976 6.20627 27.6818 5.45461C26.9671 4.70414 25.9891 4.32358 24.7772 4.32358C24.2197 4.32358 23.6173 4.44413 22.9854 4.68286C22.3759 4.91332 21.7251 5.25961 21.0482 5.71225L21.1912 5.90253C21.7995 5.48179 22.4125 5.15206 23.0149 4.92396C23.6457 4.68404 24.2386 4.56349 24.7772 4.56349C25.9017 4.56349 26.8171 4.93105 27.4975 5.65671C28.1767 6.38 28.5216 7.34557 28.5216 8.52506V9.93028L28.3928 9.88183C27.8708 9.68446 27.2731 9.53082 26.6187 9.42563C25.9608 9.31926 25.3123 9.26608 24.691 9.26608C23.8063 9.26608 23.0161 9.40081 22.3428 9.66791C21.6731 9.93383 21.1415 10.3002 20.76 10.7576C20.382 11.2102 20.1919 11.7456 20.1919 12.3507C20.1919 12.9558 20.3502 13.5255 20.6608 14.0301C20.9715 14.536 21.3967 14.9402 21.9247 15.2321V15.2285ZM23.7035 15.4283C23.1035 15.4283 22.546 15.2912 22.0487 15.0193C21.5491 14.7475 21.151 14.374 20.864 13.9119C20.5769 13.4475 20.4317 12.9215 20.4317 12.3472C20.4317 11.4868 20.8333 10.7871 21.6235 10.2707C22.4019 9.76128 23.433 9.50363 24.691 9.50363C25.3655 9.50363 26.0257 9.558 26.6506 9.66673C27.2766 9.77428 27.8849 9.94565 28.4613 10.1761L28.5204 10.1997V12.476C28.5204 12.6131 28.4932 12.7644 28.4413 12.9239C28.3881 13.0835 28.3007 13.2477 28.1814 13.412C27.7893 14.0219 27.1798 14.5182 26.3718 14.8822C25.5686 15.2439 24.6709 15.4283 23.7035 15.4283ZM24.691 9.69273C23.4708 9.69273 22.4727 9.94092 21.7262 10.429C20.9821 10.9159 20.6206 11.5435 20.6206 12.3472C20.6206 12.8861 20.7565 13.3777 21.0246 13.8115C21.2927 14.2464 21.6672 14.5962 22.1373 14.8527C22.6074 15.1092 23.1342 15.238 23.7024 15.238C24.6438 15.238 25.5143 15.0595 26.2939 14.7097C27.0664 14.361 27.6487 13.8883 28.0243 13.3056C28.1353 13.1532 28.2145 13.0066 28.2605 12.8648C28.3066 12.7242 28.3302 12.593 28.3302 12.476V10.3274C27.7833 10.1135 27.2081 9.95392 26.6163 9.8511C26.0021 9.74473 25.3537 9.69155 24.6898 9.69155L24.691 9.69273Z" fill="#F2F2F3"/>
<path d="M36.5424 4.4416C35.8125 4.52788 35.1215 4.82452 34.4706 5.33272C33.8198 5.84091 33.3001 6.48975 32.9138 7.27686V4.39787H32.4839V15.5463H32.9138V8.50008C33.215 7.39741 33.7513 6.52048 34.5238 5.8681C35.2963 5.2169 36.2058 4.86943 37.25 4.8257V4.39551C37.1637 4.39551 37.0598 4.39905 36.9381 4.40614C36.8165 4.41324 36.6842 4.42387 36.5412 4.43805L36.5424 4.4416Z" fill="#F2F2F3"/>
<path d="M33.0081 15.6421H32.3892V4.30347H33.0081V6.89527C33.3766 6.24761 33.8479 5.69805 34.4113 5.2584C35.074 4.74193 35.7862 4.43465 36.5304 4.34719H36.5327C36.6769 4.33301 36.8103 4.32238 36.9332 4.3141C37.0572 4.30701 37.1635 4.30347 37.2509 4.30347H37.3454V4.91921L37.2545 4.92276C36.2363 4.96412 35.3374 5.30804 34.585 5.94269C33.8337 6.57617 33.3034 7.44128 33.0081 8.5144V15.6421ZM32.5793 15.4519H32.8191L32.8227 8.47658C33.1274 7.35973 33.679 6.45916 34.4633 5.79733C35.2264 5.1544 36.1323 4.79748 37.1564 4.73721V4.49374C37.0938 4.49493 37.0229 4.49847 36.9462 4.5032C36.8257 4.51029 36.6946 4.52093 36.554 4.53393C35.8453 4.61784 35.1649 4.91094 34.5295 5.40613C33.8928 5.90369 33.3778 6.54662 32.9998 7.31719L32.8203 7.68356V4.49138H32.5805V15.4507L32.5793 15.4519Z" fill="#F2F2F3"/>
<path d="M43.6899 14.796C43.6757 14.8102 43.4961 14.9035 43.1536 15.0749C42.8099 15.2463 42.3882 15.3325 41.8874 15.3325C41.5153 15.3325 41.1787 15.2203 40.8786 14.9957C40.5786 14.7712 40.4133 14.4497 40.3849 14.0301V4.82825H43.0686V4.39806H40.3849V0.509766H39.9561V4.39806H38.3462V4.82825H39.9561V14.0266C39.9561 14.3741 40.0447 14.6778 40.2243 14.9378C40.4026 15.1978 40.6389 15.4011 40.933 15.5453C41.2259 15.6895 41.5448 15.7616 41.8886 15.7616C42.289 15.7616 42.6398 15.7107 42.941 15.6115C43.2422 15.511 43.5706 15.3538 43.9285 15.1387L43.6922 14.7948L43.6899 14.796Z" fill="#F2F2F3"/>
<path d="M41.8864 15.8573C41.5308 15.8573 41.1954 15.7805 40.8895 15.6304C40.5823 15.4779 40.3308 15.264 40.1441 14.991C39.9551 14.7156 39.8595 14.3918 39.8595 14.0254V4.92164H38.2495V4.30235H39.8595V0.414062H40.4784V4.30235H43.162V4.92164H40.4784V14.029C40.5056 14.4166 40.6544 14.7097 40.9332 14.9189C41.2155 15.1293 41.5367 15.2368 41.8852 15.2368C42.3695 15.2368 42.7817 15.1529 43.1089 14.9887C43.5507 14.7676 43.6192 14.7275 43.6298 14.7204L43.7101 14.6424L43.7656 14.7416L44.0586 15.1683L43.9723 15.2203C43.6097 15.4378 43.2719 15.5997 42.966 15.7013C42.6565 15.8041 42.2927 15.8561 41.884 15.8561L41.8864 15.8573ZM38.4385 4.73373H40.0485V14.0266C40.0485 14.3528 40.1335 14.6412 40.3 14.8847C40.4678 15.1293 40.6946 15.3231 40.9721 15.4602C41.2509 15.5973 41.558 15.667 41.8852 15.667C42.2738 15.667 42.6175 15.6186 42.9069 15.5217C43.175 15.4318 43.4715 15.2936 43.7893 15.1092L43.6605 14.9225C43.5873 14.9627 43.4514 15.0324 43.1939 15.16C42.8396 15.3385 42.399 15.4283 41.8852 15.4283C41.4942 15.4283 41.1363 15.3089 40.8198 15.0726C40.4973 14.8315 40.3189 14.484 40.2882 14.0373V4.73373H42.9719V4.49381H40.2882V0.605522H40.0485V4.49381H38.4385V4.73373Z" fill="#F2F2F3"/>
<path d="M9.94232 27.7207C10.6144 27.4206 11.1483 26.9478 11.5416 26.3025C11.935 25.6584 12.1322 24.9493 12.1322 24.1764C12.1322 23.5323 11.9929 22.913 11.7141 22.3185C11.4353 21.724 11.0337 21.2371 10.5116 20.8577C9.98839 20.4784 9.36945 20.2881 8.65483 20.2881H1.91382V35.5399H8.97729C9.67774 35.5399 10.3156 35.3579 10.8884 34.9927C11.4613 34.6275 11.9196 34.1441 12.2622 33.5425C12.6059 32.941 12.7772 32.2898 12.7772 31.5878C12.7772 30.7144 12.5232 29.9154 12.0153 29.1922C11.5074 28.4689 10.8164 27.9784 9.9435 27.7207H9.94232ZM2.34258 20.7183H8.65483C9.25606 20.7183 9.78522 20.879 10.2435 21.2017C10.7018 21.5243 11.0597 21.9462 11.3172 22.4686C11.5747 22.9922 11.7035 23.5606 11.7035 24.1764C11.7035 24.7354 11.5676 25.279 11.296 25.8085C11.0243 26.338 10.6522 26.7753 10.1797 27.1192C9.70726 27.4631 9.15683 27.6345 8.52726 27.6345H2.34377V20.7171L2.34258 20.7183ZM11.896 33.2743C11.5948 33.8108 11.1908 34.2517 10.6829 34.5956C10.175 34.9395 9.60568 35.1109 8.97611 35.1109H2.34258V28.0647H9.12612C9.74152 28.0647 10.292 28.2337 10.7798 28.5693C11.2664 28.9061 11.6491 29.3387 11.9279 29.8694C12.2066 30.3988 12.346 30.972 12.346 31.5878C12.346 32.2035 12.196 32.7365 11.8948 33.2743H11.896Z" fill="#F2F2F3"/>
<path d="M8.97682 35.6342H1.81885V20.1934H8.65436C9.38669 20.1934 10.0304 20.3907 10.5667 20.7807C11.0994 21.1684 11.514 21.6719 11.7999 22.2781C12.0833 22.8821 12.2274 23.5203 12.2274 24.1762C12.2274 24.9633 12.0243 25.6949 11.6227 26.352C11.2636 26.9406 10.784 27.3932 10.1958 27.7028C10.9801 27.9818 11.6179 28.4628 12.0916 29.1376C12.609 29.8739 12.8712 30.6977 12.8712 31.5864C12.8712 32.3014 12.694 32.9751 12.3432 33.5885C11.9947 34.1995 11.5211 34.6994 10.9376 35.0717C10.3529 35.4452 9.69262 35.6342 8.97564 35.6342H8.97682ZM2.00902 35.444H8.97682C9.65718 35.444 10.282 35.2643 10.836 34.911C11.3935 34.5552 11.8459 34.0789 12.179 33.4939C12.5121 32.9089 12.6822 32.2672 12.6822 31.5864C12.6822 30.7367 12.4318 29.9495 11.9369 29.2463C11.4431 28.5443 10.764 28.0609 9.91586 27.8116L9.66899 27.7383L9.90405 27.6331C10.5561 27.3424 11.0793 26.8779 11.4609 26.2527C11.8436 25.6263 12.0373 24.9279 12.0373 24.1762C12.0373 23.5486 11.8991 22.9364 11.6274 22.3585C11.3557 21.7818 10.9612 21.3031 10.4557 20.9344C9.95248 20.568 9.34535 20.3836 8.65436 20.3836H2.00784V35.4452L2.00902 35.444ZM8.97682 35.2041H2.24762V27.9688H9.12683C9.75877 27.9688 10.3328 28.1437 10.8336 28.49C11.3309 28.8339 11.7278 29.283 12.0125 29.8243C12.2971 30.3656 12.4424 30.9588 12.4424 31.5864C12.4424 32.214 12.2865 32.7706 11.9794 33.319C11.6735 33.8662 11.2553 34.3224 10.7368 34.6722C10.2147 35.0256 9.62293 35.2041 8.97682 35.2041ZM2.43779 35.0138H8.97682C9.58395 35.0138 10.1403 34.846 10.6305 34.515C11.123 34.1818 11.5211 33.748 11.814 33.2256C12.1046 32.7056 12.2534 32.1537 12.2534 31.5852C12.2534 30.9884 12.1164 30.4246 11.8459 29.9117C11.5754 29.3976 11.1986 28.9722 10.7273 28.646C10.2584 28.3221 9.72097 28.1579 9.12802 28.1579H2.43897V35.0138H2.43779ZM8.52561 27.7277H2.24762V20.6212H8.65436C9.27212 20.6212 9.82491 20.789 10.2974 21.1211C10.7663 21.452 11.1384 21.8893 11.4018 22.4247C11.664 22.9589 11.7975 23.5475 11.7975 24.1738C11.7975 24.7447 11.6569 25.3084 11.3794 25.8497C11.1018 26.391 10.7155 26.8425 10.2348 27.1935C9.74814 27.548 9.17408 27.7277 8.52561 27.7277ZM2.43779 27.5374H8.52561C9.13274 27.5374 9.67018 27.3696 10.1226 27.0398C10.5809 26.7065 10.9458 26.2775 11.2104 25.7634C11.4738 25.2493 11.6073 24.7151 11.6073 24.1738C11.6073 23.5758 11.4809 23.0156 11.2305 22.5074C10.9813 22.0016 10.6305 21.5868 10.1875 21.2759C9.74695 20.9663 9.23078 20.8103 8.65318 20.8103H2.43661V27.5374H2.43779Z" fill="#F2F2F3"/>
<path d="M16.2554 24.3911H15.8254V35.5395H16.2554V24.3911Z" fill="#F2F2F3"/>
<path d="M16.3499 35.6341H15.731V24.2954H16.3499V35.6341ZM15.92 35.4438H16.1597V24.4845H15.92V35.4438Z" fill="#F2F2F3"/>
<path d="M16.2554 19.8589H15.8254V21.5135H16.2554V19.8589Z" fill="#F2F2F3"/>
<path d="M16.3499 21.6081H15.731V19.7644H16.3499V21.6081ZM15.92 21.4178H16.1597V19.9535H15.92V21.4178Z" fill="#F2F2F3"/>
<path d="M28.9424 26.9904C28.4132 26.2317 27.7754 25.5805 27.0312 25.0357C26.2871 24.492 25.4071 24.219 24.3901 24.219C23.6318 24.219 22.9337 24.3774 22.297 24.6917C21.6604 25.0073 21.1123 25.4363 20.654 25.98C20.1957 26.5248 19.8414 27.1441 19.5909 27.8378C19.3405 28.5328 19.2153 29.2525 19.2153 29.9971C19.2153 30.7416 19.3476 31.4117 19.6122 32.0913C19.8768 32.7721 20.2489 33.3878 20.7284 33.9385C21.208 34.4905 21.7761 34.9301 22.4352 35.2599C23.0932 35.5896 23.809 35.7539 24.5826 35.7539C25.4272 35.7539 26.2469 35.5175 27.0407 35.0448C27.8356 34.572 28.4687 33.9634 28.9412 33.2188V36.0115C28.9412 36.8565 28.7369 37.5692 28.3293 38.1483C27.9218 38.7286 27.3773 39.1647 26.6981 39.459C26.0178 39.7521 25.2701 39.8998 24.4551 39.8998C23.5538 39.8998 22.7057 39.7131 21.9108 39.3408C21.1159 38.9685 20.4898 38.3669 20.0315 37.5361L19.624 37.6649C20.0386 38.452 20.6186 39.0938 21.3627 39.5878C22.1069 40.0818 23.1369 40.3288 24.4539 40.3288C25.2984 40.3288 26.0957 40.1752 26.8481 39.8667C27.5994 39.5582 28.2077 39.0831 28.6731 38.4378C29.1385 37.7937 29.3711 36.9842 29.3711 36.0103V24.3892H28.9412V26.9881L28.9424 26.9904ZM28.9424 31.9093C28.914 32.3099 28.7711 32.7118 28.5136 33.1124C28.2561 33.5131 27.9195 33.8818 27.5049 34.2186C27.0903 34.5555 26.632 34.8237 26.1312 35.0247C25.6303 35.2256 25.1142 35.3249 24.585 35.3249C23.8975 35.3249 23.2573 35.1819 22.6632 34.8947C22.0691 34.6087 21.5434 34.2151 21.0851 33.7128C20.6268 33.2117 20.2725 32.642 20.0221 32.005C19.7717 31.368 19.6465 30.6979 19.6465 29.9971C19.6465 29.3671 19.754 28.7372 19.9689 28.1073C20.1839 27.4774 20.491 26.9006 20.8914 26.3782C21.2919 25.8559 21.7891 25.4363 22.3833 25.1219C22.9774 24.8076 23.6459 24.6492 24.3901 24.6492C25.0338 24.6492 25.6563 24.7886 26.2575 25.0676C26.8588 25.3465 27.3986 25.7306 27.8781 26.2163C28.3577 26.7032 28.712 27.2623 28.9412 27.8922V31.9093H28.9424Z" fill="#F2F2F3"/>
<path d="M24.4548 40.4257C23.126 40.4257 22.0677 40.1716 21.3105 39.6681C20.5569 39.167 19.9604 38.5087 19.5399 37.7109L19.4868 37.6105L20.0774 37.4249L20.1152 37.4923C20.5616 38.3007 21.1782 38.894 21.9507 39.2568C22.7279 39.622 23.5701 39.8064 24.4548 39.8064C25.2533 39.8064 25.9963 39.661 26.6613 39.3738C27.3216 39.089 27.8566 38.6588 28.2523 38.0962C28.6468 37.5349 28.8465 36.834 28.8465 36.0138V33.5319C28.3893 34.1713 27.7988 34.7067 27.09 35.1298C26.2845 35.6084 25.4411 35.8519 24.5836 35.8519C23.7993 35.8519 23.0634 35.6817 22.3948 35.3484C21.7275 35.0151 21.144 34.5625 20.6585 34.0047C20.1742 33.4492 19.7927 32.8181 19.5246 32.1302C19.2564 31.4412 19.1206 30.725 19.1206 30.0005C19.1206 29.2761 19.2494 28.5126 19.5021 27.8094C19.7549 27.1074 20.1187 26.4727 20.5817 25.9232C21.0459 25.3712 21.6094 24.9292 22.2543 24.6101C22.9016 24.2898 23.6197 24.1279 24.3899 24.1279C25.4222 24.1279 26.3294 24.408 27.0865 24.9623C27.7562 25.4528 28.348 26.0366 28.8465 26.7008V24.2993H29.4654V36.015C29.4654 37.0042 29.2245 37.8398 28.7496 38.4981C28.2771 39.154 27.6487 39.6456 26.8833 39.9588C26.1238 40.2697 25.3065 40.428 24.4537 40.428L24.4548 40.4257ZM19.7632 37.7228C20.1648 38.4472 20.7211 39.0488 21.4168 39.5109C22.1421 39.9919 23.1638 40.2366 24.456 40.2366C25.284 40.2366 26.0778 40.0829 26.8137 39.7815C27.5448 39.4814 28.1448 39.0122 28.5972 38.3858C29.0484 37.7606 29.2776 36.9628 29.2776 36.0138V24.4872H29.0378V27.2929L28.8654 27.0459C28.3445 26.299 27.709 25.6478 26.9767 25.1136C26.2526 24.5841 25.3832 24.3158 24.3922 24.3158C23.6516 24.3158 22.9618 24.4718 22.3405 24.7779C21.718 25.0852 21.1759 25.5119 20.7294 26.0437C20.2805 26.5767 19.9285 27.1913 19.6828 27.8732C19.4372 28.5551 19.312 29.2713 19.312 29.9994C19.312 30.7274 19.4431 31.3928 19.7029 32.0593C19.9628 32.7271 20.3325 33.3393 20.8026 33.8782C21.2715 34.4171 21.8361 34.8544 22.4799 35.1771C23.1225 35.4985 23.83 35.6616 24.5848 35.6616C25.408 35.6616 26.2183 35.4276 26.9944 34.9655C27.7728 34.5022 28.4012 33.8995 28.863 33.1703L29.0378 32.8949V36.0138C29.0378 36.8742 28.8264 37.6117 28.4083 38.2061C27.9925 38.7983 27.4302 39.2497 26.7369 39.5487C26.0482 39.8454 25.2805 39.9966 24.456 39.9966C23.5441 39.9966 22.6748 39.8064 21.8716 39.4294C21.0837 39.0606 20.4506 38.4626 19.9888 37.653L19.7644 37.7239L19.7632 37.7228ZM24.5848 35.4205C23.8855 35.4205 23.2252 35.2728 22.6228 34.9809C22.0204 34.6901 21.4794 34.2859 21.0152 33.7777C20.551 33.2695 20.1872 32.6857 19.9344 32.0404C19.6805 31.3951 19.5517 30.7073 19.5517 29.997C19.5517 29.36 19.6616 28.7135 19.8789 28.0765C20.0951 27.4395 20.4116 26.8486 20.8168 26.3203C21.2231 25.7896 21.7357 25.3582 22.3393 25.038C22.9453 24.7165 23.6351 24.5546 24.391 24.5546C25.0454 24.5546 25.688 24.6988 26.2987 24.9824C26.907 25.2649 27.4609 25.6584 27.9464 26.1513C28.4331 26.6465 28.798 27.222 29.0307 27.8614L29.0366 27.8933V31.9175C29.0059 32.3335 28.8571 32.7531 28.5925 33.1655C28.3303 33.5733 27.9842 33.9527 27.5637 34.2942C27.1432 34.6346 26.6731 34.91 26.1652 35.1144C25.6561 35.3189 25.1246 35.4217 24.5848 35.4217V35.4205ZM24.391 24.7449C23.667 24.7449 23.0067 24.8997 22.4279 25.2058C21.848 25.5131 21.3566 25.9279 20.9668 26.4361C20.5746 26.9478 20.2687 27.521 20.0585 28.138C19.8482 28.7549 19.7419 29.3801 19.7419 29.997C19.7419 30.6837 19.8659 31.3479 20.1104 31.9707C20.3561 32.5947 20.7069 33.1585 21.1546 33.6489C21.6023 34.1394 22.1232 34.5294 22.7043 34.8083C23.2819 35.0872 23.9138 35.2291 24.5848 35.2291C25.0998 35.2291 25.6077 35.1298 26.0955 34.9348C26.5857 34.7386 27.0393 34.4727 27.4456 34.1441C27.8507 33.8156 28.1838 33.4504 28.4342 33.0604C28.6811 32.6763 28.8205 32.2886 28.8488 31.9057V27.9087C28.6256 27.3012 28.2771 26.754 27.8141 26.2836C27.344 25.8073 26.8077 25.4268 26.2207 25.1538C25.6348 24.882 25.0194 24.7437 24.3922 24.7437L24.391 24.7449Z" fill="#F2F2F3"/>
<path d="M33.2569 34.1655H32.8269V35.54H33.2569V34.1655Z" fill="#F2F2F3"/>
<path d="M33.3511 35.6344H32.7322V34.0696H33.3511V35.6344ZM32.9212 35.4441H33.1609V34.2587H32.9212V35.4441Z" fill="#F2F2F3"/>
</svg>
