<svg width="50" height="46" viewBox="0 0 50 46" fill="none" xmlns="http://www.w3.org/2000/svg">
<path d="M5.10056 17.5687C5.88452 17.7621 6.73648 17.8595 7.65644 17.8595C8.5764 17.8595 9.43769 17.7621 10.1883 17.5687C10.9403 17.3753 11.5776 17.0965 12.1029 16.7323C12.6282 16.3681 13.0269 15.9159 13.3028 15.3742C13.5775 14.8326 13.7148 14.215 13.7148 13.5199C13.7148 12.5021 13.4602 11.7057 12.9509 11.132C12.4415 10.5584 11.7189 10.1062 10.7816 9.774C9.84434 9.44317 8.73772 9.14835 7.46178 8.88955C6.18584 8.63074 5.14722 8.35994 4.34726 8.07712C3.5473 7.79431 2.96199 7.41411 2.59001 6.93787C2.21803 6.46162 2.0327 5.81061 2.0327 4.98619C2.0327 3.74154 2.47268 2.74369 3.35397 1.9913C4.23393 1.24024 5.65253 0.864047 7.60711 0.864047C8.12442 0.864047 8.5964 0.896064 9.02438 0.961431C9.45236 1.0268 9.85634 1.13085 10.2363 1.27626C10.615 1.42167 10.9789 1.62044 11.3269 1.8699C11.6736 2.1207 12.0176 2.43153 12.3576 2.80372L12.6722 2.46488C12.2202 1.96328 11.7389 1.56441 11.2309 1.26425C10.7216 0.965433 10.1643 0.746653 9.55901 0.609249C8.95371 0.471844 8.28707 0.403809 7.56044 0.403809C6.3485 0.403809 5.28988 0.582568 4.38592 0.937419C3.48063 1.2936 2.782 1.81387 2.29002 2.5009C1.79671 3.18792 1.55139 4.03236 1.55139 5.03421C1.55139 6.03607 1.78204 6.73509 2.24202 7.27671C2.702 7.81832 3.37664 8.23854 4.26593 8.53736C5.15389 8.83618 6.22851 9.10699 7.48845 9.34978C8.81239 9.60858 9.899 9.90341 10.7483 10.2342C11.5963 10.5664 12.2229 10.9946 12.6269 11.5189C13.0309 12.0445 13.2322 12.7355 13.2322 13.592C13.2322 14.8686 12.7349 15.8305 11.7416 16.4775C10.7483 17.1245 9.39503 17.4473 7.68177 17.4473C7.03514 17.4473 6.42183 17.3993 5.84053 17.3019C5.25922 17.2045 4.70591 17.0511 4.1806 16.8417C3.65529 16.6322 3.15798 16.3654 2.69 16.0413C2.22069 15.7184 1.76871 15.3302 1.33273 14.878L0.96875 15.1928C1.58205 15.7905 2.22869 16.2881 2.90732 16.6843C3.58596 17.0805 4.3166 17.3753 5.10056 17.5687Z" fill="#F2F2F3"/>
<path d="M7.65788 17.9663C6.73259 17.9663 5.8633 17.8676 5.07533 17.6715C4.28603 17.4767 3.53806 17.1752 2.8541 16.775C2.17146 16.3775 1.51283 15.8692 0.89419 15.2676L0.811523 15.1862L1.3395 14.7286L1.41017 14.802C1.84081 15.2489 2.29146 15.6357 2.7501 15.9519C3.21008 16.2694 3.70472 16.5349 4.21937 16.7403C4.73401 16.9471 5.28599 17.0992 5.85663 17.1952C6.42993 17.2913 7.04324 17.3393 7.68054 17.3393C9.36313 17.3393 10.7097 17.0191 11.6817 16.3868C12.639 15.7638 13.1243 14.8233 13.1243 13.592C13.1243 12.7636 12.9283 12.0886 12.5403 11.5843C12.1497 11.0774 11.5337 10.6558 10.7084 10.333C9.86844 10.0048 8.77783 9.71 7.46722 9.45387C6.20461 9.21108 5.11533 8.93627 4.23003 8.63878C3.32741 8.33462 2.63011 7.89973 2.15946 7.34611C1.68349 6.78715 1.4435 6.00942 1.4435 5.03424C1.4435 4.05907 1.69949 3.13993 2.20213 2.43823C2.70477 1.73787 3.42607 1.19892 4.34603 0.8374C5.26065 0.478547 6.34193 0.297119 7.56054 0.297119C8.29118 0.297119 8.97115 0.367822 9.58312 0.505227C10.1978 0.645299 10.7711 0.869416 11.2857 1.17224C11.8003 1.47506 12.2937 1.88594 12.7523 2.39287L12.8176 2.46624L12.3577 2.9625L12.279 2.87713C11.9457 2.5116 11.6044 2.20344 11.2657 1.95798C10.9271 1.71385 10.5684 1.51775 10.2004 1.37635C9.82978 1.23494 9.42979 1.13088 9.01114 1.06685C8.58983 1.00415 8.11785 0.972136 7.60987 0.972136C5.68996 0.972136 4.28203 1.343 3.42607 2.07404C2.57544 2.79975 2.14346 3.78026 2.14346 4.98622C2.14346 5.78263 2.32345 6.41763 2.6781 6.87253C3.03542 7.3301 3.61006 7.70229 4.38602 7.9771C5.18065 8.25725 6.22461 8.52939 7.48588 8.78552C8.75915 9.04432 9.88177 9.34315 10.8204 9.67532C11.7697 10.0102 12.515 10.4784 13.0336 11.0627C13.5589 11.6537 13.8243 12.4821 13.8243 13.5226C13.8243 14.231 13.6816 14.8713 13.4003 15.4263C13.119 15.9813 12.7043 16.4508 12.167 16.823C11.6337 17.1926 10.9777 17.4794 10.2178 17.6755C9.46045 17.8702 8.60049 17.9703 7.6592 17.9703L7.65788 17.9663ZM1.12751 15.1955C1.70882 15.7505 2.32479 16.2187 2.96209 16.5896C3.62873 16.9791 4.35669 17.2726 5.12732 17.462C5.89795 17.6528 6.74992 17.7502 7.65788 17.7502C8.56584 17.7502 9.42446 17.6541 10.1631 17.462C10.8977 17.2726 11.5297 16.9965 12.043 16.6416C12.551 16.2894 12.943 15.8465 13.2083 15.3236C13.4736 14.7993 13.6083 14.1923 13.6083 13.5173C13.6083 12.5315 13.3603 11.7511 12.871 11.2001C12.3763 10.6425 11.6617 10.1956 10.7471 9.87142C9.81778 9.54325 8.7045 9.2471 7.44055 8.99096C6.16861 8.7335 5.11666 8.45869 4.3127 8.17454C3.49673 7.88639 2.89009 7.49152 2.50744 6.99926C2.12346 6.50567 1.92748 5.82666 1.92748 4.98222C1.92748 3.70956 2.38478 2.67569 3.28608 1.90595C4.18203 1.14022 5.63664 0.753356 7.60855 0.753356C8.12852 0.753356 8.61117 0.786707 9.04181 0.85074C9.47646 0.916107 9.89244 1.02416 10.2764 1.17224C10.6617 1.32032 11.0364 1.52442 11.391 1.77922C11.715 2.01268 12.0403 2.30349 12.359 2.64234L12.5283 2.45957C12.103 2.002 11.6497 1.62981 11.1777 1.35233C10.6817 1.06018 10.1298 0.84407 9.53645 0.709334C8.94048 0.574597 8.27518 0.505227 7.56188 0.505227C6.36993 0.505227 5.31531 0.682653 4.42602 1.03083C3.54473 1.37768 2.85543 1.89128 2.37812 2.55829C1.90081 3.22397 1.65949 4.05507 1.65949 5.03024C1.65949 5.95339 1.88347 6.68443 2.32479 7.20337C2.7701 7.72764 3.43541 8.14119 4.3007 8.43201C5.17533 8.72683 6.25527 9.0003 7.50988 9.24043C8.83382 9.49789 9.93644 9.79805 10.7884 10.1302C11.651 10.4677 12.2977 10.912 12.7123 11.4496C13.1296 11.9925 13.3403 12.7116 13.3403 13.588C13.3403 14.898 12.8216 15.8985 11.8017 16.5629C10.7951 17.2179 9.4098 17.5501 7.68321 17.5501C7.03391 17.5501 6.4086 17.5007 5.82329 17.4033C5.23666 17.3046 4.67002 17.1485 4.14071 16.9364C3.61006 16.7243 3.10208 16.4508 2.62877 16.1253C2.18346 15.8185 1.74482 15.4463 1.32617 15.0208L1.12751 15.1928V15.1955Z" fill="#F2F2F3"/>
<path d="M20.7187 17.2047C20.3307 17.3981 19.8547 17.4955 19.2894 17.4955C18.8694 17.4955 18.4894 17.3688 18.1508 17.1153C17.8121 16.8618 17.6255 16.499 17.5935 16.0254V5.63869H20.6227V5.1531H17.5935V0.76416H17.1095V5.1531H15.2922V5.63869H17.1095V16.0214C17.1095 16.4136 17.2095 16.7565 17.4121 17.0499C17.6135 17.3434 17.8801 17.5729 18.2121 17.7356C18.5428 17.8984 18.9027 17.9798 19.2907 17.9798C19.7427 17.9798 20.1387 17.9224 20.4787 17.8103C20.8187 17.6969 21.1893 17.5195 21.5933 17.2767L21.3266 16.8885C21.3106 16.9045 21.108 17.0099 20.7213 17.2034L20.7187 17.2047Z" fill="#F2F2F3"/>
<path d="M19.2894 18.0877C18.888 18.0877 18.5094 18.001 18.1641 17.8316C17.8174 17.6595 17.5348 17.418 17.3241 17.1099C17.1108 16.7991 17.0028 16.4335 17.0028 16.02V5.74398H15.1855V5.04495H17.0028V0.656006H17.7014V5.04495H20.7306V5.74398H17.7014V16.024C17.7321 16.4615 17.9001 16.7924 18.2161 17.0285C18.5347 17.266 18.8974 17.3874 19.2907 17.3874C19.8373 17.3874 20.3026 17.2926 20.672 17.1072C21.1559 16.8658 21.2439 16.8151 21.2599 16.8044L21.3506 16.7137L21.4146 16.8284L21.7452 17.31L21.6479 17.3687C21.2386 17.6141 20.8573 17.7969 20.512 17.9116C20.1627 18.0277 19.752 18.0864 19.2907 18.0864L19.2894 18.0877ZM15.3975 5.53187H17.2148V16.0213C17.2148 16.3895 17.3108 16.715 17.4988 16.9898C17.6881 17.266 17.9441 17.4847 18.2574 17.6395C18.5734 17.7942 18.92 17.8729 19.288 17.8729C19.7267 17.8729 20.1147 17.8182 20.4413 17.7089C20.744 17.6075 21.0786 17.4514 21.4373 17.2433L21.2919 17.0325C21.2079 17.0779 21.0546 17.1566 20.7666 17.3006C20.3653 17.5021 19.868 17.6035 19.288 17.6035C18.8467 17.6035 18.4427 17.4687 18.0854 17.2019C17.7214 16.9298 17.5188 16.5376 17.4854 16.0333V5.53187H20.5146V5.26106H17.4854V0.872117H17.2148V5.26106H15.3975V5.53187Z" fill="#F2F2F3"/>
<path d="M24.9592 17.4715C25.5725 17.8104 26.2591 17.9811 27.0191 17.9811C28.1177 17.9811 29.135 17.7703 30.0723 17.3501C31.0096 16.9299 31.7682 16.3483 32.3508 15.6039V16.7672C32.3508 16.9779 32.3988 17.1674 32.4962 17.3368C32.5935 17.5062 32.7215 17.6236 32.8841 17.689C32.9161 17.705 32.9561 17.717 33.0055 17.725C33.0535 17.733 33.1268 17.737 33.2241 17.737V17.2514C33.1108 17.2514 33.0188 17.2114 32.9455 17.13C32.8721 17.0486 32.8361 16.9286 32.8361 16.7658V9.80755C32.8361 8.32011 32.4202 7.14083 31.5882 6.26705C30.7562 5.39459 29.6376 4.95703 28.2324 4.95703C27.5857 4.95703 26.8991 5.09444 26.1724 5.36924C25.4458 5.64405 24.6778 6.05627 23.8699 6.60589L24.1605 6.99409C24.8712 6.49383 25.5778 6.10963 26.2804 5.84282C26.9831 5.57602 27.6337 5.44262 28.231 5.44262C29.475 5.44262 30.4722 5.84282 31.2242 6.64324C31.9748 7.44365 32.3508 8.49754 32.3508 9.80755V11.2376C31.7522 11.0122 31.0789 10.8374 30.3269 10.716C29.575 10.5946 28.8443 10.5346 28.1337 10.5346C27.1151 10.5346 26.2191 10.688 25.4431 10.9948C24.6672 11.3017 24.0579 11.7219 23.6139 12.2555C23.1699 12.7891 22.9473 13.4108 22.9473 14.1231C22.9473 14.8355 23.1286 15.4852 23.4926 16.0748C23.8566 16.6658 24.3445 17.13 24.9592 17.4689V17.4715ZM24.7285 11.87C25.5925 11.3043 26.7284 11.0215 28.1337 11.0215C28.8923 11.0215 29.6243 11.0815 30.3269 11.2029C31.0296 11.3243 31.7042 11.5138 32.3508 11.7726V14.2699C32.3508 14.4153 32.3228 14.5727 32.2655 14.7421C32.2082 14.9115 32.1162 15.0863 31.9868 15.2637C31.5509 15.9427 30.8842 16.4843 29.9883 16.8886C29.091 17.2928 28.1017 17.4942 27.0191 17.4942C26.3564 17.4942 25.7511 17.3448 25.2018 17.046C24.6525 16.7471 24.2205 16.3429 23.9059 15.8333C23.5912 15.3237 23.4339 14.7541 23.4339 14.1245C23.4339 13.1866 23.8659 12.4356 24.7298 11.87H24.7285Z" fill="#F2F2F3"/>
<path d="M27.0193 18.0878C26.246 18.0878 25.534 17.9117 24.9074 17.5648C24.2794 17.2167 23.7728 16.7351 23.4021 16.1334C23.0301 15.5291 22.8408 14.8541 22.8408 14.1257C22.8408 13.3973 23.0728 12.7397 23.5315 12.1901C23.9848 11.6458 24.6141 11.2109 25.4034 10.8987C26.1887 10.5879 27.1073 10.4305 28.1326 10.4305C28.8459 10.4305 29.5898 10.4918 30.3431 10.6132C31.0364 10.7253 31.6737 10.884 32.2417 11.0868V9.81015C32.2417 8.53483 31.8724 7.49562 31.1444 6.71922C30.4178 5.94548 29.4378 5.55328 28.2299 5.55328C27.6486 5.55328 27.0046 5.68535 26.3167 5.94548C25.6247 6.20829 24.9194 6.59115 24.2208 7.08474L24.1354 7.14477L23.7154 6.58315L23.8088 6.52045C24.6194 5.96949 25.4007 5.54928 26.1327 5.27313C26.87 4.99432 27.5753 4.85425 28.2312 4.85425C29.6605 4.85425 30.8164 5.30648 31.6644 6.19628C32.5124 7.08607 32.943 8.30137 32.943 9.81015V16.7684C32.943 16.9018 32.9697 17.0006 33.0243 17.0606C33.0777 17.1193 33.1403 17.146 33.2243 17.146H33.331V17.845H33.2243C33.1177 17.845 33.0417 17.841 32.9883 17.8316C32.9297 17.8223 32.879 17.8063 32.8364 17.785C32.6617 17.7156 32.5124 17.5822 32.4044 17.3914C32.2977 17.206 32.2444 16.9965 32.2444 16.7684V15.9026C31.6804 16.5483 30.9671 17.0673 30.1178 17.4488C29.1712 17.873 28.1286 18.0878 27.0206 18.0878H27.0193ZM25.0114 17.3781C25.606 17.7063 26.282 17.8743 27.0193 17.8743C28.0966 17.8743 29.1099 17.6662 30.0285 17.2527C30.9444 16.8418 31.6977 16.2655 32.2657 15.5385L32.4577 15.2943V16.7684C32.4577 16.9592 32.5017 17.1326 32.5884 17.2847C32.6737 17.4341 32.783 17.5342 32.923 17.5902C32.9537 17.6062 32.9843 17.6142 33.0217 17.6209C33.0457 17.6249 33.0763 17.6275 33.1163 17.6302V17.3514C33.019 17.3314 32.9337 17.282 32.8644 17.2047C32.775 17.1046 32.7284 16.9579 32.7284 16.7698V9.81149C32.7284 8.36007 32.3177 7.19413 31.5097 6.34569C30.7031 5.49858 29.5992 5.06903 28.2312 5.06903C27.6019 5.06903 26.922 5.2051 26.2087 5.47457C25.5207 5.73471 24.7861 6.12557 24.0221 6.63651L24.1834 6.85128C24.8701 6.37637 25.562 6.00418 26.242 5.74671C26.954 5.4759 27.6233 5.33983 28.2312 5.33983C29.5005 5.33983 30.5338 5.75472 31.3018 6.57381C32.0684 7.39023 32.4577 8.48013 32.4577 9.81149V11.3976L32.3124 11.3429C31.7231 11.1202 31.0484 10.9467 30.3098 10.828C29.5672 10.708 28.8352 10.6479 28.1339 10.6479C27.1353 10.6479 26.2433 10.8 25.4834 11.1015C24.7274 11.4016 24.1274 11.8152 23.6968 12.3315C23.2701 12.8424 23.0555 13.4467 23.0555 14.1297C23.0555 14.8127 23.2341 15.4557 23.5848 16.0254C23.9354 16.5963 24.4154 17.0526 25.0114 17.3821V17.3781ZM27.0193 17.6035C26.342 17.6035 25.7127 17.4488 25.1514 17.142C24.5874 16.8351 24.1381 16.4136 23.8141 15.892C23.4901 15.3677 23.3261 14.7741 23.3261 14.1257C23.3261 13.1546 23.7794 12.3648 24.6714 11.7818C25.55 11.2069 26.714 10.9161 28.1339 10.9161C28.8952 10.9161 29.6405 10.9774 30.3458 11.1002C31.0524 11.2216 31.7391 11.415 32.3897 11.6751L32.4564 11.7018V14.2711C32.4564 14.4259 32.4257 14.5966 32.367 14.7767C32.307 14.9568 32.2084 15.1423 32.0737 15.3277C31.6311 16.016 30.9431 16.5763 30.0312 16.9872C29.1245 17.3954 28.1112 17.6035 27.0193 17.6035ZM28.1339 11.1295C26.7566 11.1295 25.63 11.4097 24.7874 11.9606C23.9474 12.5102 23.5395 13.2186 23.5395 14.1257C23.5395 14.734 23.6928 15.289 23.9954 15.7786C24.2981 16.2695 24.7207 16.6644 25.2514 16.9539C25.782 17.2433 26.3767 17.3888 27.018 17.3888C28.0806 17.3888 29.0632 17.1873 29.9432 16.7924C30.8151 16.3989 31.4724 15.8653 31.8964 15.2076C32.0217 15.0355 32.1111 14.8701 32.1631 14.71C32.2151 14.5513 32.2417 14.4032 32.2417 14.2711V11.8459C31.6244 11.6044 30.9751 11.4243 30.3071 11.3083C29.6138 11.1882 28.8819 11.1282 28.1326 11.1282L28.1339 11.1295Z" fill="#F2F2F3"/>
<path d="M41.5111 5.20217C40.6871 5.29956 39.9071 5.6344 39.1725 6.20803C38.4379 6.78166 37.8512 7.51404 37.4152 8.4025V5.15282H36.9299V17.7367H37.4152V9.78322C37.7552 8.53857 38.3605 7.54873 39.2325 6.81234C40.1045 6.0773 41.1311 5.68509 42.3097 5.63573V5.15015C42.2124 5.15015 42.095 5.15415 41.9577 5.16215C41.8204 5.17016 41.671 5.18216 41.5097 5.19817L41.5111 5.20217Z" fill="#F2F2F3"/>
<path d="M37.5219 17.8448H36.8232V5.04614H37.5219V7.97166C37.9379 7.24062 38.4698 6.62029 39.1058 6.12404C39.8538 5.54107 40.6577 5.19422 41.4977 5.0955H41.5004C41.663 5.07949 41.8137 5.06749 41.9523 5.05815C42.0923 5.05014 42.2123 5.04614 42.311 5.04614H42.4176V5.74117L42.315 5.74517C41.1657 5.79186 40.1511 6.18006 39.3018 6.89644C38.4538 7.61147 37.8552 8.58798 37.5219 9.79928V17.8448ZM37.0379 17.63H37.3085L37.3126 9.75659C37.6565 8.49593 38.2792 7.47941 39.1645 6.73235C40.0258 6.00664 41.0484 5.60377 42.2043 5.53573V5.26092C42.1337 5.26225 42.0537 5.26626 41.967 5.27159C41.831 5.2796 41.683 5.2916 41.5244 5.30628C40.7244 5.40099 39.9564 5.73183 39.2391 6.29079C38.5205 6.85241 37.9392 7.57812 37.5125 8.44791L37.3099 8.86146V5.25825H37.0392V17.6287L37.0379 17.63Z" fill="#F2F2F3"/>
<path d="M49.5796 16.8899C49.5636 16.9059 49.3609 17.0113 48.9743 17.2047C48.5863 17.3981 48.1103 17.4955 47.545 17.4955C47.125 17.4955 46.745 17.3688 46.4064 17.1153C46.0677 16.8618 45.8811 16.499 45.8491 16.0254V5.63869H48.8783V5.1531H45.8491V0.76416H45.3651V5.1531H43.5479V5.63869H45.3651V16.0214C45.3651 16.4136 45.4651 16.7565 45.6677 17.0499C45.8691 17.3434 46.1357 17.5729 46.4677 17.7356C46.7984 17.8984 47.1583 17.9798 47.5463 17.9798C47.9983 17.9798 48.3943 17.9224 48.7343 17.8103C49.0743 17.6969 49.4449 17.5195 49.8489 17.2767L49.5822 16.8885L49.5796 16.8899Z" fill="#F2F2F3"/>
<path d="M47.5436 18.0877C47.1423 18.0877 46.7637 18.001 46.4183 17.8316C46.0717 17.6595 45.7877 17.418 45.577 17.1099C45.3637 16.7991 45.2557 16.4335 45.2557 16.02V5.74398H43.4385V5.04495H45.2557V0.656006H45.9544V5.04495H48.9835V5.74398H45.9544V16.024C45.985 16.4615 46.153 16.7924 46.4677 17.0285C46.7863 17.266 47.149 17.3874 47.5423 17.3874C48.0889 17.3874 48.5542 17.2926 48.9235 17.1072C49.4222 16.8577 49.4995 16.8124 49.5115 16.8044L49.6022 16.7163L49.6649 16.8284L49.9955 17.31L49.8982 17.3687C49.4889 17.6141 49.1075 17.7969 48.7622 17.9116C48.4129 18.0277 48.0023 18.0864 47.5409 18.0864L47.5436 18.0877ZM43.6518 5.53187H45.469V16.0213C45.469 16.3895 45.565 16.715 45.753 16.9898C45.9424 17.266 46.1983 17.4847 46.5117 17.6395C46.8263 17.7942 47.173 17.8729 47.5423 17.8729C47.9809 17.8729 48.3689 17.8182 48.6956 17.7089C48.9982 17.6075 49.3329 17.4514 49.6915 17.2433L49.5462 17.0325C49.4635 17.0779 49.3102 17.1566 49.0195 17.3006C48.6196 17.5021 48.1223 17.6035 47.5423 17.6035C47.101 17.6035 46.697 17.4687 46.3397 17.2019C45.9757 16.9298 45.7744 16.5376 45.7397 16.0333V5.53187H48.7689V5.26106H45.7397V0.872117H45.469V5.26106H43.6518V5.53187Z" fill="#F2F2F3"/>
<path d="M11.4851 31.4786C12.2437 31.1397 12.8464 30.6061 13.2903 29.8777C13.7343 29.1507 13.957 28.3503 13.957 27.4778C13.957 26.7508 13.7997 26.0517 13.485 25.3807C13.1704 24.7097 12.717 24.1601 12.1277 23.7319C11.5371 23.3036 10.8385 23.0889 10.0318 23.0889H2.42285V40.3045H10.3958C11.1864 40.3045 11.9064 40.099 12.553 39.6868C13.1997 39.2746 13.717 38.729 14.1036 38.05C14.4916 37.3709 14.6849 36.6359 14.6849 35.8435C14.6849 34.8576 14.3983 33.9558 13.825 33.1394C13.2517 32.323 12.4717 31.7694 11.4864 31.4786H11.4851ZM2.90683 23.5745H10.0318C10.7105 23.5745 11.3078 23.7559 11.8251 24.1201C12.3424 24.4843 12.7464 24.9605 13.037 25.5501C13.3277 26.1411 13.473 26.7828 13.473 27.4778C13.473 28.1088 13.3197 28.7225 13.013 29.3201C12.7064 29.9177 12.2864 30.4113 11.7531 30.7995C11.2198 31.1877 10.5985 31.3812 9.88784 31.3812H2.90816V23.5731L2.90683 23.5745ZM13.6903 37.7471C13.3503 38.3528 12.8944 38.8504 12.3211 39.2386C11.7478 39.6268 11.1051 39.8202 10.3945 39.8202H2.90683V31.8668H10.5638C11.2584 31.8668 11.8797 32.0575 12.4304 32.4364C12.9797 32.8166 13.4117 33.3048 13.7263 33.9038C14.041 34.5015 14.1983 35.1485 14.1983 35.8435C14.1983 36.5385 14.029 37.1402 13.689 37.7471H13.6903Z" fill="#F2F2F3"/>
<path d="M10.396 40.4112H2.31641V22.9822H10.0321C10.8587 22.9822 11.5853 23.205 12.1906 23.6452C12.7919 24.0827 13.2599 24.651 13.5826 25.3354C13.9025 26.0171 14.0652 26.7375 14.0652 27.4778C14.0652 28.3663 13.8359 29.1921 13.3826 29.9338C12.9773 30.5981 12.4359 31.1091 11.772 31.4586C12.6573 31.7734 13.3772 32.3164 13.9119 33.0781C14.4958 33.9092 14.7918 34.839 14.7918 35.8422C14.7918 36.6493 14.5918 37.4097 14.1959 38.102C13.8025 38.7917 13.2679 39.356 12.6093 39.7762C11.9493 40.1978 11.204 40.4112 10.3947 40.4112H10.396ZM2.53107 40.1964H10.396C11.164 40.1964 11.8693 39.9937 12.4946 39.5948C13.1239 39.1933 13.6345 38.6556 14.0105 37.9953C14.3865 37.335 14.5785 36.6106 14.5785 35.8422C14.5785 34.883 14.2959 33.9946 13.7372 33.2008C13.1799 32.4084 12.4133 31.8628 11.456 31.5813L11.1773 31.4986L11.4426 31.3799C12.1786 31.0517 12.7693 30.5274 13.1999 29.8217C13.6319 29.1147 13.8505 28.3263 13.8505 27.4778C13.8505 26.7695 13.6945 26.0785 13.3879 25.4261C13.0812 24.7751 12.6359 24.2348 12.0653 23.8186C11.4973 23.4051 10.812 23.197 10.0321 23.197H2.52973V40.1978L2.53107 40.1964ZM10.396 39.9256H2.80038V31.7587H10.5654C11.2787 31.7587 11.9266 31.9562 12.4919 32.347C13.0532 32.7352 13.5012 33.2422 13.8225 33.8532C14.1439 34.4641 14.3079 35.1338 14.3079 35.8422C14.3079 36.5506 14.1319 37.1789 13.7852 37.7979C13.4399 38.4155 12.9679 38.9305 12.3826 39.3253C11.7933 39.7242 11.1253 39.9256 10.396 39.9256ZM3.01504 39.7109H10.396C11.0813 39.7109 11.7093 39.5214 12.2626 39.1479C12.8186 38.7717 13.2679 38.2821 13.5986 37.6925C13.9265 37.1055 14.0945 36.4825 14.0945 35.8409C14.0945 35.1672 13.9399 34.5308 13.6345 33.9519C13.3292 33.3716 12.9039 32.8913 12.3719 32.5231C11.8426 32.1576 11.236 31.9722 10.5667 31.9722H3.01637V39.7109H3.01504ZM9.88672 31.4866H2.80038V23.4651H10.0321C10.7294 23.4651 11.3533 23.6545 11.8866 24.0294C12.4159 24.4029 12.8359 24.8965 13.1332 25.5008C13.4292 26.1038 13.5799 26.7681 13.5799 27.4752C13.5799 28.1195 13.4212 28.7558 13.1079 29.3668C12.7946 29.9778 12.3586 30.4874 11.816 30.8836C11.2667 31.2838 10.6187 31.4866 9.88672 31.4866ZM3.01504 31.2718H9.88672C10.572 31.2718 11.1787 31.0824 11.6893 30.7102C12.2066 30.334 12.6186 29.8497 12.9172 29.2694C13.2146 28.6891 13.3652 28.0862 13.3652 27.4752C13.3652 26.8002 13.2226 26.1678 12.9399 25.5942C12.6586 25.0232 12.2626 24.555 11.7626 24.2041C11.2653 23.8546 10.6827 23.6785 10.0307 23.6785H3.01371V31.2718H3.01504Z" fill="#F2F2F3"/>
<path d="M18.6123 27.7207H18.127V40.3046H18.6123V27.7207Z" fill="#F2F2F3"/>
<path d="M18.7191 40.4112H18.0205V27.6125H18.7191V40.4112ZM18.2338 40.1964H18.5045V27.826H18.2338V40.1964Z" fill="#F2F2F3"/>
<path d="M18.6123 22.6047H18.127V24.4724H18.6123V22.6047Z" fill="#F2F2F3"/>
<path d="M18.7191 24.5791H18.0205V22.498H18.7191V24.5791ZM18.2338 24.3644H18.5045V22.7115H18.2338V24.3644Z" fill="#F2F2F3"/>
<path d="M32.9324 30.6542C32.3351 29.7977 31.6151 29.0627 30.7751 28.4477C29.9352 27.834 28.9419 27.5259 27.7939 27.5259C26.938 27.5259 26.15 27.7046 25.4314 28.0595C24.7128 28.4157 24.0941 28.8999 23.5768 29.5136C23.0595 30.1286 22.6595 30.8276 22.3769 31.6107C22.0942 32.3951 21.9529 33.2075 21.9529 34.0479C21.9529 34.8884 22.1022 35.6448 22.4009 36.4118C22.6995 37.1802 23.1195 37.8753 23.6608 38.4969C24.2021 39.1199 24.8434 39.6162 25.5874 39.9883C26.33 40.3605 27.138 40.546 28.0113 40.546C28.9646 40.546 29.8898 40.2792 30.7858 39.7456C31.6831 39.2119 32.3977 38.5249 32.931 37.6845V40.8368C32.931 41.7906 32.7004 42.595 32.2404 43.2487C31.7804 43.9037 31.1658 44.396 30.3992 44.7281C29.6312 45.059 28.7872 45.2257 27.8673 45.2257C26.85 45.2257 25.8927 45.015 24.9954 44.5947C24.0981 44.1745 23.3915 43.4955 22.8742 42.5577L22.4142 42.7031C22.8822 43.5916 23.5368 44.3159 24.3768 44.8735C25.2167 45.4312 26.3793 45.71 27.8659 45.71C28.8192 45.71 29.7192 45.5366 30.5685 45.1884C31.4164 44.8402 32.1031 44.3039 32.6284 43.5755C33.1537 42.8485 33.4163 41.9347 33.4163 40.8355V27.718H32.931V30.6515L32.9324 30.6542ZM32.9324 36.2064C32.9004 36.6586 32.7391 37.1122 32.4484 37.5644C32.1577 38.0167 31.7778 38.4329 31.3098 38.8131C30.8418 39.1933 30.3245 39.4961 29.7592 39.7229C29.1939 39.9497 28.6112 40.0617 28.0139 40.0617C27.238 40.0617 26.5153 39.9003 25.8447 39.5761C25.1741 39.2533 24.5808 38.8091 24.0635 38.2421C23.5461 37.6765 23.1462 37.0335 22.8635 36.3144C22.5809 35.5954 22.4395 34.839 22.4395 34.0479C22.4395 33.3369 22.5609 32.6259 22.8035 31.9148C23.0462 31.2038 23.3928 30.5528 23.8448 29.9631C24.2968 29.3735 24.8581 28.8999 25.5287 28.5451C26.1994 28.1902 26.954 28.0115 27.7939 28.0115C28.5206 28.0115 29.2232 28.1689 29.9018 28.4837C30.5805 28.7985 31.1898 29.2321 31.7311 29.7804C32.2724 30.33 32.6724 30.961 32.931 31.672V36.2064H32.9324Z" fill="#F2F2F3"/>
<path d="M27.8675 45.8193C26.3676 45.8193 25.1729 45.5325 24.3183 44.9642C23.4677 44.3986 22.7944 43.6555 22.3197 42.7551L22.2597 42.6417L22.9264 42.4322L22.969 42.5083C23.473 43.4207 24.169 44.0904 25.041 44.5C25.9182 44.9122 26.8689 45.1203 27.8675 45.1203C28.7688 45.1203 29.6074 44.9562 30.358 44.632C31.1033 44.3105 31.7073 43.8249 32.154 43.1899C32.5993 42.5563 32.8246 41.7652 32.8246 40.8394V38.0379C32.3086 38.7596 31.642 39.364 30.842 39.8415C29.9327 40.3818 28.9808 40.6566 28.0128 40.6566C27.1275 40.6566 26.2969 40.4645 25.5423 40.0883C24.789 39.7121 24.1303 39.2012 23.5824 38.5715C23.0357 37.9446 22.6051 37.2322 22.3024 36.4558C21.9998 35.678 21.8464 34.8696 21.8464 34.0519C21.8464 33.2341 21.9918 32.3723 22.2771 31.5786C22.5624 30.7862 22.973 30.0698 23.4957 29.4495C24.0197 28.8265 24.6556 28.3276 25.3836 27.9674C26.1142 27.6059 26.9249 27.4231 27.7942 27.4231C28.9594 27.4231 29.9834 27.7393 30.838 28.3649C31.594 28.9185 32.2619 29.5775 32.8246 30.3273V27.6165H33.5232V40.8407C33.5232 41.9573 33.2512 42.9005 32.7153 43.6435C32.182 44.3839 31.4727 44.9389 30.6087 45.2924C29.7514 45.6432 28.8288 45.822 27.8662 45.822L27.8675 45.8193ZM22.5717 42.7684C23.025 43.5862 23.653 44.2652 24.4383 44.7868C25.2569 45.3297 26.4102 45.6059 27.8688 45.6059C28.8034 45.6059 29.6994 45.4324 30.53 45.0923C31.3553 44.7534 32.0326 44.2238 32.5433 43.5168C33.0526 42.8111 33.3112 41.9106 33.3112 40.8394V27.8286H33.0406V30.9956L32.8459 30.7168C32.258 29.8737 31.5407 29.1387 30.714 28.5357C29.8967 27.938 28.9154 27.6352 27.7968 27.6352C26.9609 27.6352 26.1822 27.8113 25.4809 28.1568C24.7783 28.5037 24.1663 28.9852 23.6624 29.5856C23.1557 30.1872 22.7584 30.8809 22.4811 31.6506C22.2038 32.4204 22.0624 33.2288 22.0624 34.0505C22.0624 34.8723 22.2104 35.6234 22.5037 36.3757C22.7971 37.1295 23.2144 37.8205 23.745 38.4288C24.2743 39.0371 24.9116 39.5307 25.6383 39.8949C26.3636 40.2578 27.1622 40.4419 28.0142 40.4419C28.9434 40.4419 29.8581 40.1777 30.734 39.6561C31.6126 39.1332 32.3219 38.4528 32.8433 37.6297L33.0406 37.3189V40.8394C33.0406 41.8106 32.8019 42.643 32.33 43.314C31.8606 43.9824 31.226 44.492 30.4434 44.8295C29.6661 45.1643 28.7994 45.3351 27.8688 45.3351C26.8395 45.3351 25.8582 45.1203 24.9516 44.6947C24.0623 44.2785 23.3477 43.6035 22.8264 42.6897L22.5731 42.7697L22.5717 42.7684ZM28.0142 40.1697C27.2249 40.1697 26.4796 40.003 25.7996 39.6735C25.1196 39.3453 24.509 38.889 23.985 38.3154C23.461 37.7418 23.0504 37.0828 22.7651 36.3544C22.4784 35.626 22.3331 34.8496 22.3331 34.0479C22.3331 33.3288 22.4571 32.5991 22.7024 31.8801C22.9464 31.161 23.3037 30.494 23.761 29.8977C24.2197 29.2987 24.7983 28.8118 25.4796 28.4503C26.1636 28.0874 26.9422 27.9047 27.7955 27.9047C28.5341 27.9047 29.2594 28.0674 29.9487 28.3876C30.6354 28.7064 31.2607 29.1507 31.8086 29.7069C32.3579 30.2659 32.7699 30.9156 33.0326 31.6373L33.0393 31.6733V36.2157C33.0046 36.6852 32.8366 37.1588 32.5379 37.6244C32.242 38.0846 31.8513 38.5128 31.3767 38.8984C30.902 39.2826 30.3714 39.5934 29.7981 39.8242C29.2234 40.055 28.6235 40.171 28.0142 40.171V40.1697ZM27.7955 28.1195C26.9782 28.1195 26.2329 28.2942 25.5796 28.6397C24.925 28.9866 24.3703 29.4548 23.9303 30.0284C23.4877 30.6061 23.1424 31.2531 22.9051 31.9494C22.6677 32.6458 22.5477 33.3515 22.5477 34.0479C22.5477 34.8229 22.6877 35.5727 22.9637 36.2757C23.241 36.9801 23.637 37.6164 24.1423 38.17C24.6476 38.7236 25.2356 39.1639 25.8916 39.4787C26.5435 39.7935 27.2569 39.9536 28.0142 39.9536C28.5955 39.9536 29.1688 39.8415 29.7194 39.6214C30.2727 39.4 30.7847 39.0998 31.2433 38.729C31.7006 38.3581 32.0766 37.9459 32.3593 37.5057C32.6379 37.0721 32.7953 36.6345 32.8273 36.2023V31.6906C32.5753 31.005 32.182 30.3873 31.6593 29.8564C31.1287 29.3187 30.5234 28.8892 29.8607 28.581C29.1994 28.2742 28.5048 28.1181 27.7968 28.1181L27.7955 28.1195Z" fill="#F2F2F3"/>
<path d="M37.8032 38.7532H37.3179V40.3046H37.8032V38.7532Z" fill="#F2F2F3"/>
<path d="M37.9098 40.4113H37.2112V38.645H37.9098V40.4113ZM37.4245 40.1965H37.6952V38.8585H37.4245V40.1965Z" fill="#F2F2F3"/>
</svg>
