<svg width="32" height="31" viewBox="0 0 32 31" fill="none" xmlns="http://www.w3.org/2000/svg">
<path d="M25.2026 12.9532L22.2265 14.7705V10.9712L20.5421 12.054V17.3857L19.1427 18.2786L17.604 17.3857V15.7267L20.5421 13.8903L19.1617 13.0292L16.1159 14.8148L13.0575 12.9152L9.97367 14.7705L6.94688 12.9532L3.88843 14.7135V18.2152L5.38916 19.1587V15.695L6.94688 14.7642L8.39696 15.676V19.1904L9.98634 18.2469L13.0321 20.0199L16.0653 18.2469L19.1617 20.0199L22.2455 18.2469L25.1456 20.0199V18.1202L23.7272 17.3857V15.638L25.2153 14.7768L26.6844 15.6697V17.2844L28.2231 16.3916V14.7452L25.2026 12.9532ZM14.5582 17.3857L13.0385 18.2596L11.5187 17.3857V15.6444L13.0385 14.7705L14.5582 15.6444V17.3857Z" fill="#CCCCCC"/>
<path d="M24.3789 15.9674V16.9299L25.2148 17.4111L26.0443 16.9299V15.9674L25.2148 15.4861L24.3789 15.9674Z" fill="#CCCCCC"/>
</svg>
