<svg width="22" height="23" viewBox="0 0 22 23" fill="none" xmlns="http://www.w3.org/2000/svg">
<g clip-path="url(#clip0_458_13521)">
<path d="M10.808 13.2962C11.868 13.2962 12.7273 12.4369 12.7273 11.3769C12.7273 10.3169 11.868 9.45758 10.808 9.45758C9.74798 9.45758 8.88867 10.3169 8.88867 11.3769C8.88867 12.4369 9.74798 13.2962 10.808 13.2962Z" fill="#53C1DE"/>
<path d="M4.1154 14.7755C4.30403 14.8381 4.49265 14.9015 4.68575 14.9561C4.62317 15.2073 4.56864 15.4549 4.51768 15.7106C4.07786 18.0366 4.42114 19.88 5.51892 20.5129C6.65067 21.1664 8.55301 20.4959 10.4053 18.8743C10.5519 18.7446 10.6985 18.6106 10.8451 18.4675C11.0293 18.6481 11.2224 18.8197 11.4146 18.9869C13.2078 20.529 14.9806 21.153 16.0748 20.5209C17.2065 19.8675 17.5748 17.8856 17.0975 15.4719C17.0588 15.2825 17.0167 15.0939 16.9714 14.906C17.1055 14.8684 17.2351 14.8264 17.3656 14.7844C19.7838 13.9843 21.5351 12.689 21.5351 11.3606C21.5351 10.0911 19.8839 8.85926 17.6043 8.07526C17.3793 8.00039 17.1531 7.92827 16.9258 7.86071C16.9634 7.70606 16.9973 7.55051 17.0304 7.39586C17.5462 4.89814 17.2065 2.8921 16.0623 2.22967C14.96 1.59675 13.1623 2.25471 11.3439 3.8388C11.1634 3.99345 10.9882 4.15705 10.8201 4.32064C10.7061 4.21098 10.5902 4.10339 10.4723 3.99792C8.56553 2.30477 6.65514 1.59228 5.51087 2.25917C4.41309 2.89657 4.0859 4.78639 4.54719 7.14823C4.59367 7.38334 4.64373 7.61309 4.70184 7.8482C4.43365 7.92329 4.16994 8.00732 3.92231 8.09583C1.68473 8.87089 0.0800781 10.0947 0.0800781 11.3606C0.0800781 12.6684 1.78933 13.979 4.1154 14.7755ZM9.81439 18.1895C9.12347 18.8229 8.32237 19.3243 7.45076 19.669C6.9859 19.8907 6.44953 19.9122 5.97126 19.7235C5.30526 19.3382 5.02813 17.8587 5.40539 15.8679C5.45187 15.6337 5.50193 15.3986 5.56004 15.1679C6.4987 15.3691 7.4454 15.5076 8.40551 15.5782C8.95943 16.3628 9.56415 17.1103 10.2158 17.8158C10.0817 17.9455 9.94758 18.0715 9.81349 18.1886L9.81439 18.1895ZM15.1361 10.3209C14.9405 9.9511 14.7379 9.58511 14.5282 9.22311C14.3226 8.86731 14.109 8.51509 13.8873 8.16734C14.5622 8.25137 15.2076 8.36401 15.8111 8.50258C15.618 9.12004 15.3927 9.72697 15.1361 10.3209ZM15.1442 12.4074C15.4123 13.0153 15.6475 13.6312 15.8522 14.2641C15.2023 14.4107 14.5452 14.5243 13.8828 14.5994C14.3347 13.8872 14.7555 13.1559 15.1442 12.4074ZM14.6596 11.365C14.0973 12.522 13.4563 13.6391 12.7412 14.7084C12.1172 14.7549 11.4673 14.7755 10.8094 14.7755C10.1514 14.7755 9.51491 14.7549 8.89897 14.7165C8.17167 13.6551 7.52587 12.5401 6.96713 11.3811H6.96534C7.51953 10.2237 8.16116 9.11013 8.88467 8.05023C10.1654 7.95542 11.4515 7.95542 12.7323 8.05023C13.0881 8.57856 13.4278 9.11851 13.7505 9.67187C14.0723 10.226 14.3755 10.7907 14.6596 11.365ZM7.08156 9.23115C6.87595 9.58695 6.67481 9.95079 6.48618 10.32C6.2331 9.72248 6.00935 9.11297 5.81571 8.49364C6.41913 8.35954 7.0601 8.25048 7.7261 8.16645C7.50529 8.5142 7.28717 8.86999 7.08156 9.23115ZM6.48707 12.4405C6.68017 12.8097 6.87684 13.1744 7.08603 13.5347C7.29968 13.8994 7.51781 14.2641 7.74845 14.6199C7.09532 14.5488 6.44633 14.4437 5.80409 14.3053C5.98825 13.7018 6.21889 13.0779 6.48707 12.4405ZM10.8415 17.1704C10.393 16.6853 9.9693 16.1778 9.57212 15.6498C10.4085 15.684 11.2461 15.6825 12.0824 15.6453C11.6971 16.1761 11.2829 16.6852 10.8415 17.1704ZM16.3188 18.4291C16.2992 18.6832 16.2276 18.9306 16.1086 19.156C15.9896 19.3814 15.8257 19.5801 15.6269 19.7396C14.9609 20.1249 13.5404 19.6225 12.0064 18.3066C11.8259 18.1495 11.6486 17.9889 11.4745 17.8248C12.1148 17.1178 12.7056 16.3674 13.2427 15.5791C14.2045 15.4994 15.1595 15.3525 16.1007 15.1393C16.1427 15.311 16.1803 15.4826 16.2142 15.6507C16.4189 16.5626 16.4543 17.5043 16.3188 18.4291ZM16.6827 8.72428C16.9008 8.78685 17.11 8.8539 17.3111 8.92095C19.2635 9.59142 20.634 10.5891 20.634 11.3516C20.634 12.1732 19.1714 13.2334 17.0805 13.9244C16.9634 13.962 16.8463 13.9995 16.7247 14.0335C16.4293 13.1192 16.0724 12.2258 15.6564 11.3597C16.0587 10.505 16.3984 9.62449 16.6827 8.72428ZM11.934 4.51731C13.4939 3.16028 14.9475 2.62838 15.6099 3.00921C16.3179 3.41596 16.5906 5.05816 16.1463 7.21617C16.1183 7.35686 16.0861 7.49668 16.0497 7.63544C15.1205 7.42514 14.1782 7.27671 13.2293 7.19114C12.6853 6.40961 12.0888 5.66592 11.4441 4.96518C11.6077 4.81053 11.7668 4.66392 11.934 4.51731ZM10.8165 5.60705C11.2563 6.08442 11.6711 6.58682 12.0564 7.10621C11.2258 7.06867 10.3938 7.06867 9.56318 7.10621C9.97351 6.56626 10.3972 6.06386 10.8165 5.60705ZM5.95517 3.03871C6.65961 2.62838 8.22225 3.21482 9.86892 4.67286C9.97351 4.76494 10.0781 4.86596 10.1872 4.96608C9.53839 5.66603 8.93776 6.40912 8.38942 7.19025C7.44235 7.27493 6.50174 7.42065 5.57345 7.6265C5.51892 7.41284 5.47333 7.19472 5.42684 6.97659C5.0326 4.9482 5.29275 3.41953 5.95517 3.03871ZM4.21642 8.94598C4.45511 8.86195 4.69826 8.78685 4.94142 8.71534C5.22632 9.62461 5.56911 10.5147 5.96768 11.3802C5.5654 12.2563 5.21765 13.161 4.92891 14.0827L4.92801 14.0836C4.75343 14.0337 4.58024 13.9792 4.40862 13.92C3.51645 13.6393 2.50181 13.195 1.76876 12.613C1.55951 12.4683 1.38181 12.2825 1.24643 12.0671C1.11106 11.8517 1.02082 11.611 0.981188 11.3597C0.981188 10.5926 2.30514 9.61198 4.21642 8.94598Z" fill="#53C1DE"/>
</g>
<defs>
<clipPath id="clip0_458_13521">
<rect width="21.455" height="21.455" fill="white" transform="translate(0.0800781 0.650391)"/>
</clipPath>
</defs>
</svg>
