<svg width="28" height="20" viewBox="0 0 28 20" fill="none" xmlns="http://www.w3.org/2000/svg">
<path d="M23.1924 2.28607C21.3806 1.53581 19.4856 1.00788 17.5472 0.711426C17.2815 1.14243 17.0398 1.58826 16.8243 2.04549C14.7457 1.76157 12.6374 1.76157 10.5588 2.04549C10.3421 1.58826 10.1004 1.14243 9.83473 0.711426C7.89521 1.01016 5.99788 1.54037 4.18493 2.29063C0.612607 7.08641 -0.356583 11.7613 0.128012 16.3724C2.25111 17.7885 4.5897 18.8535 7.05259 19.5251C7.61244 18.841 8.10843 18.1158 8.53488 17.3553C7.73102 17.0839 6.94997 16.7452 6.20084 16.345C6.39582 16.2162 6.58737 16.0828 6.77323 15.9539C8.96246 16.8821 11.3159 17.3598 13.6944 17.3564C16.0877 17.3564 18.4503 16.8775 20.6155 15.9539C20.8037 16.0919 20.9952 16.2264 21.1891 16.345C20.4434 16.7441 19.66 17.0827 18.8493 17.3575C19.2792 18.1226 19.7752 18.8478 20.3328 19.5251C22.7968 18.8558 25.1365 17.792 27.2608 16.3735C27.8297 11.0282 26.2904 6.3943 23.1924 2.28607ZM9.14831 13.5367C7.79829 13.5367 6.68315 12.4249 6.68315 11.0589C6.68315 9.69182 7.76066 8.57212 9.14375 8.57212C9.8028 8.5687 10.4356 8.82981 10.8997 9.29844C11.3638 9.76593 11.6203 10.401 11.6112 11.0601C11.5873 12.4261 10.5246 13.5367 9.14831 13.5367ZM18.2405 13.5367C16.8893 13.5367 15.7776 12.4249 15.7776 11.0589C15.7776 9.69182 16.8539 8.57212 18.2405 8.57212C18.8995 8.56756 19.5312 8.82981 19.9941 9.29844C20.457 9.76593 20.7125 10.401 20.7011 11.0601C20.6771 12.4261 19.6156 13.5367 18.2405 13.5367Z" fill="white"/>
</svg>
