<svg width="28" height="28" viewBox="0 0 28 28" fill="none" xmlns="http://www.w3.org/2000/svg">
<path fill-rule="evenodd" clip-rule="evenodd" d="M22.9668 22.8503H19.2895V17.0942C19.2895 15.7216 19.2639 13.9574 17.3765 13.9574C15.4644 13.9574 15.1719 15.454 15.1719 16.9967V22.8503H11.4973V11.0148H15.0214V12.6328H15.0727C15.5644 11.7032 16.7634 10.7223 18.5532 10.7223C22.2792 10.7223 22.9659 13.1715 22.9659 16.3596L22.9668 22.8503ZM7.34884 9.39852C7.06511 9.40448 6.78306 9.35378 6.51917 9.24938C6.25528 9.14499 6.01487 8.98901 5.81201 8.79056C5.60915 8.59212 5.44792 8.3552 5.33775 8.09367C5.22757 7.83215 5.17068 7.55127 5.1704 7.26748C5.17011 6.9837 5.22644 6.70271 5.33609 6.44097C5.44574 6.17922 5.6065 5.94198 5.80896 5.74312C6.01142 5.54427 6.25152 5.3878 6.51519 5.28289C6.77887 5.17797 7.06083 5.1267 7.34456 5.13209C7.91044 5.13152 8.45336 5.35577 8.8539 5.75551C9.25444 6.15524 9.47977 6.69772 9.48034 7.26359C9.48091 7.82947 9.25666 8.3724 8.85692 8.77293C8.45719 9.17347 7.91471 9.39881 7.34884 9.39937V9.39852ZM5.5051 22.8503H9.1883V11.0148H5.50595L5.5051 22.8503ZM24.7977 1.71826H3.66136C2.65226 1.71826 1.83301 2.5187 1.83301 3.50642V24.7282C1.83301 25.716 2.65311 26.5181 3.66136 26.5181H24.7977C25.8093 26.5181 26.6329 25.716 26.6329 24.7282V3.50642C26.6329 2.5187 25.8093 1.71826 24.7977 1.71826Z" fill="white"/>
</svg>
