<svg width="22" height="22" viewBox="0 0 22 22" fill="none" xmlns="http://www.w3.org/2000/svg">
<path d="M18.0183 10.8643V8.33293L13.2167 3.55425H6.07467C5.34176 3.55425 4.74761 4.1484 4.74761 4.88131V8.86186M17.9716 8.31075L13.2148 3.55392V6.98368C13.2148 7.7166 13.8089 8.31075 14.5418 8.31075H17.9716ZM6.6608 8.86186H4.71305C3.98014 8.86186 3.38599 9.45598 3.38599 10.1889V16.8243C3.38599 18.2901 4.57428 19.4784 6.04011 19.4784H16.6566C18.1225 19.4784 19.3108 18.2901 19.3108 16.8243V12.1914C19.3108 11.4584 18.7166 10.8643 17.9837 10.8643H9.78283C9.43469 10.8643 9.10039 10.7274 8.85217 10.4832L7.59151 9.24297C7.34329 8.99872 7.00903 8.86186 6.6608 8.86186Z" stroke="#FAFAFA" stroke-width="1.27398" stroke-miterlimit="10" stroke-linecap="round" stroke-linejoin="round"/>
</svg>
