<svg width="23" height="22" viewBox="0 0 23 22" fill="none" xmlns="http://www.w3.org/2000/svg">
<path d="M18.2365 10.8643V8.33287L13.435 3.55419H6.29293C5.56002 3.55419 4.96587 4.14834 4.96587 4.88125V8.86179M18.1898 8.31069L13.433 3.55386V6.98362C13.433 7.71654 14.0272 8.31069 14.7601 8.31069H18.1898ZM6.87907 8.86179H4.93131C4.1984 8.86179 3.60425 9.45592 3.60425 10.1889V16.8242C3.60425 18.29 4.79254 19.4783 6.25837 19.4783H16.8749C18.3407 19.4783 19.529 18.29 19.529 16.8242V12.1913C19.529 11.4584 18.9348 10.8643 18.202 10.8643H10.0011C9.65295 10.8643 9.31865 10.7274 9.07043 10.4832L7.80978 9.24291C7.56155 8.99866 7.22729 8.86179 6.87907 8.86179Z" stroke="#FAFAFA" stroke-width="1.27398" stroke-miterlimit="10" stroke-linecap="round" stroke-linejoin="round"/>
</svg>
