<svg width="22" height="22" viewBox="0 0 22 22" fill="none" xmlns="http://www.w3.org/2000/svg">
<path d="M18.1333 10.505V7.97359L13.3317 3.1949H6.18966C5.45675 3.1949 4.8626 3.78905 4.8626 4.52197V8.50251M18.0865 7.9514L13.3298 3.19458V6.62434C13.3298 7.35725 13.9239 7.9514 14.6568 7.9514H18.0865ZM6.77579 8.50251H4.82804C4.09513 8.50251 3.50098 9.09664 3.50098 9.8296V16.4649C3.50098 17.9308 4.68927 19.119 6.1551 19.119H16.7716C18.2375 19.119 19.4258 17.9308 19.4258 16.4649V11.832C19.4258 11.0991 18.8316 10.505 18.0987 10.505H9.89782C9.54968 10.505 9.21538 10.3681 8.96716 10.1239L7.70651 8.88363C7.45828 8.63938 7.12402 8.50251 6.77579 8.50251Z" stroke="#FAFAFA" stroke-width="1.27398" stroke-miterlimit="10" stroke-linecap="round" stroke-linejoin="round"/>
</svg>
