<svg width="22" height="22" viewBox="0 0 22 22" fill="none" xmlns="http://www.w3.org/2000/svg">
<path d="M17.9157 10.8643V8.33286L13.1142 3.55417H5.97213C5.23922 3.55417 4.64507 4.14833 4.64507 4.88124V8.86178M17.869 8.31068L13.1122 3.55385V6.98361C13.1122 7.71652 13.7064 8.31068 14.4393 8.31068H17.869ZM6.55827 8.86178H4.61051C3.8776 8.86178 3.28345 9.45591 3.28345 10.1889V16.8242C3.28345 18.29 4.47174 19.4783 5.93757 19.4783H16.5541C18.0199 19.4783 19.2082 18.29 19.2082 16.8242V12.1913C19.2082 11.4584 18.614 10.8643 17.8812 10.8643H9.68029C9.33215 10.8643 8.99785 10.7273 8.74963 10.4832L7.48898 9.2429C7.24075 8.99865 6.90649 8.86178 6.55827 8.86178Z" stroke="#FAFAFA" stroke-width="1.27398" stroke-miterlimit="10" stroke-linecap="round" stroke-linejoin="round"/>
</svg>
