<svg width="53" height="53" viewBox="0 0 53 53" fill="none" xmlns="http://www.w3.org/2000/svg">
<g clip-path="url(#clip0_458_13679)">
<g filter="url(#filter0_d_458_13679)">
<path d="M24.7933 1.85585C24.4984 1.85605 24.2091 1.93639 23.9563 2.0883C23.7035 2.24021 23.4967 2.45796 23.3581 2.71828L10.3402 27.1284C10.2079 27.3763 10.142 27.6543 10.1489 27.9352C10.1559 28.2162 10.2356 28.4906 10.3801 28.7316C10.5246 28.9726 10.7291 29.1721 10.9736 29.3107C11.2182 29.4492 11.4944 29.522 11.7755 29.5221H19.6431L16.6767 48.8015C16.623 49.1536 16.6863 49.5135 16.8569 49.8261C17.0275 50.1388 17.296 50.3868 17.6211 50.5322C17.9462 50.6775 18.31 50.7122 18.6568 50.6309C19.0035 50.5497 19.314 50.3569 19.5406 50.0821L42.3235 22.4159C42.5192 22.1779 42.6432 21.8892 42.6812 21.5834C42.7192 21.2776 42.6697 20.9673 42.5382 20.6886C42.4068 20.4099 42.1989 20.1742 41.9388 20.009C41.6787 19.8438 41.377 19.7559 41.0689 19.7554H30.7897L39.2399 4.26253C39.3751 4.0148 39.4435 3.73618 39.4384 3.45402C39.4334 3.17186 39.3551 2.89586 39.2111 2.65313C39.0672 2.41039 38.8626 2.20925 38.6174 2.06948C38.3723 1.9297 38.095 1.85608 37.8128 1.85585H24.7933Z" fill="url(#paint0_linear_458_13679)"/>
<path d="M23.4602 2.77267L23.4602 2.77273L10.4423 27.1828L10.4423 27.1829C10.3194 27.4132 10.2581 27.6714 10.2646 27.9324C10.2711 28.1934 10.3451 28.4482 10.4793 28.6721L10.3801 28.7316L10.4793 28.6721C10.6136 28.896 10.8035 29.0813 11.0307 29.21C11.2578 29.3387 11.5144 29.4063 11.7755 29.4063H19.6431H19.778L19.7575 29.5396L16.7911 48.8189L23.4602 2.77267ZM23.4602 2.77267C23.589 2.53086 23.781 2.32859 24.0159 2.18748C24.2507 2.04638 24.5194 1.97175 24.7934 1.97156L37.8127 1.97156C38.0749 1.97179 38.3324 2.04017 38.5601 2.17C38.7879 2.29984 38.9779 2.48667 39.1116 2.71215C39.2453 2.93762 39.3181 3.19399 39.3227 3.45609C39.3274 3.71818 39.2639 3.97699 39.1383 4.2071L39.1383 4.20712L30.6881 19.7L30.5947 19.8711M23.4602 2.77267L30.5947 19.8711M30.5947 19.8711H30.7897M30.5947 19.8711H30.7897M30.7897 19.8711H41.0687C41.3549 19.8716 41.6352 19.9532 41.8768 20.1067C42.1184 20.2602 42.3115 20.4791 42.4336 20.7379C42.5556 20.9968 42.6017 21.2851 42.5664 21.5691C42.5311 21.8531 42.4159 22.1213 42.2342 22.3424L30.7897 19.8711ZM16.9585 49.7707C16.8001 49.4804 16.7412 49.1461 16.791 48.8191L19.4513 50.0086C19.2408 50.2637 18.9524 50.4428 18.6303 50.5183C18.3083 50.5938 17.9703 50.5616 17.6683 50.4265C17.3663 50.2915 17.117 50.0611 16.9585 49.7707ZM42.2341 22.3425L19.4513 50.0085L42.2341 22.3425Z" stroke="url(#paint1_linear_458_13679)" stroke-width="0.231429"/>
</g>
</g>
<defs>
<filter id="filter0_d_458_13679" x="5.51987" y="1.85585" width="41.8026" height="58.0752" filterUnits="userSpaceOnUse" color-interpolation-filters="sRGB">
<feFlood flood-opacity="0" result="BackgroundImageFix"/>
<feColorMatrix in="SourceAlpha" type="matrix" values="0 0 0 0 0 0 0 0 0 0 0 0 0 0 0 0 0 0 127 0" result="hardAlpha"/>
<feOffset dy="4.62857"/>
<feGaussianBlur stdDeviation="2.31429"/>
<feComposite in2="hardAlpha" operator="out"/>
<feColorMatrix type="matrix" values="0 0 0 0 0 0 0 0 0 0 0 0 0 0 0 0 0 0 0.25 0"/>
<feBlend mode="normal" in2="BackgroundImageFix" result="effect1_dropShadow_458_13679"/>
<feBlend mode="normal" in="SourceGraphic" in2="effect1_dropShadow_458_13679" result="shape"/>
</filter>
<linearGradient id="paint0_linear_458_13679" x1="26.421" y1="1.85585" x2="26.421" y2="50.6739" gradientUnits="userSpaceOnUse">
<stop stop-color="#8F8F8F"/>
<stop offset="1" stop-color="#555555"/>
</linearGradient>
<linearGradient id="paint1_linear_458_13679" x1="26.421" y1="1.85585" x2="26.421" y2="50.6739" gradientUnits="userSpaceOnUse">
<stop stop-color="#D92121"/>
<stop offset="0.375" stop-color="#D17474"/>
<stop offset="0.965" stop-color="#8A8A8A"/>
</linearGradient>
<clipPath id="clip0_458_13679">
<rect width="52.0714" height="52.0714" fill="white" transform="translate(0.385742 0.228592)"/>
</clipPath>
</defs>
</svg>
