<svg width="49" height="42" viewBox="0 0 49 42" fill="none" xmlns="http://www.w3.org/2000/svg">
<path d="M40.5319 31.4093L40.4602 31.566C40.1775 32.1876 39.7296 32.7492 39.1278 33.2345C38.5178 33.7259 37.8183 34.1176 37.0461 34.3984C36.2771 34.6792 35.4508 34.8206 34.5882 34.8206C33.2257 34.8206 31.9734 34.4635 30.8644 33.7585C29.7493 33.0514 28.8472 32.0706 28.1831 30.8447C27.5169 29.6177 27.1791 28.1862 27.1791 26.5889C27.1791 24.9916 27.5075 23.5062 28.1571 22.2782C28.8035 21.0543 29.7036 20.0929 30.8322 19.4224C31.9619 18.7509 33.2257 18.4111 34.5892 18.4111C35.8073 18.4111 36.9339 18.6868 37.9358 19.2291C38.9356 19.7714 39.7514 20.5619 40.3594 21.5772L40.4384 21.7095L48.0875 19.4234L47.9826 19.2179C47.4213 18.1191 46.7053 17.1119 45.8531 16.2227C45.0029 15.3355 43.9938 14.542 42.8547 13.8654C41.7136 13.1878 40.4436 12.673 39.079 12.3353C37.7175 11.9975 36.2251 11.8266 34.6433 11.8266C33.0615 11.8266 31.5639 11.9955 30.1941 12.3302C28.8212 12.6649 27.5377 13.1736 26.3789 13.843C26.1346 13.9834 25.8966 14.1299 25.6638 14.2815H20.5672C20.7324 14.0516 20.9153 13.839 21.1149 13.6477C21.3986 13.375 21.7332 13.1014 22.1084 12.8358C22.4815 12.5713 22.9243 12.3017 23.4221 12.0331C23.9199 11.7655 24.4905 11.4664 25.1182 11.1439L25.1224 11.1419C25.5693 10.8997 26.039 10.6118 26.5192 10.2862C27.0024 9.95863 27.4566 9.57915 27.8692 9.15795C28.287 8.73166 28.6352 8.2311 28.9064 7.67154C29.1808 7.10384 29.3201 6.44558 29.3201 5.7151C29.3201 4.66006 29.0488 3.72406 28.5136 2.93253C27.9794 2.14304 27.2009 1.51836 26.2001 1.07478C25.2065 0.634247 23.9958 0.411438 22.599 0.411438C21.6782 0.411438 20.8 0.50809 19.9893 0.69936C19.1818 0.889612 18.4356 1.13379 17.7704 1.42374C17.1032 1.71573 16.5202 2.03112 16.0379 2.36279C15.5568 2.69345 15.1649 3.00578 14.8739 3.29065L14.743 3.41885L17.599 6.64194L17.7476 6.45983C17.9814 6.17292 18.2495 5.89619 18.5447 5.63676C18.8378 5.37936 19.16 5.14027 19.504 4.92865C19.8407 4.72111 20.2117 4.55934 20.6067 4.44539C21.0005 4.33246 21.436 4.27549 21.9016 4.27549C22.4732 4.27549 22.9534 4.37112 23.3275 4.56036C23.6985 4.74756 23.9895 4.99885 24.1922 5.30509C24.3928 5.60827 24.4946 5.9491 24.4946 6.31739C24.4946 6.65822 24.398 6.94919 24.2005 7.20761C23.9927 7.47925 23.6767 7.75293 23.2641 8.01847C22.8349 8.2952 22.3038 8.60042 21.6865 8.927C21.0504 9.26172 20.3157 9.65138 19.5009 10.0838H19.4988C18.5395 10.6108 17.7361 11.1602 17.1105 11.7187C16.913 11.8947 16.7291 12.0748 16.5565 12.26H11.7394V3.01901H3.90217V12.261H0.0703125V18.2483H3.90217V34.2651C3.90217 35.1035 3.99051 35.8736 4.16511 36.5543C4.34075 37.241 4.60889 37.8565 4.96224 38.3835C5.66584 39.4355 6.62095 40.2118 7.80158 40.692C8.9687 41.1661 10.2647 41.4062 11.6542 41.4062C12.6956 41.4062 13.7463 41.3044 14.7752 41.103C15.7999 40.9026 16.7727 40.634 17.6655 40.3064C18.5541 39.9798 19.3221 39.6868 19.9488 39.4345L20.1078 39.3704L18.5094 33.2264L18.2974 33.3128C17.8609 33.4919 17.2674 33.7096 16.5316 33.9609C15.8166 34.2061 15.0724 34.3302 14.32 34.3302C13.5676 34.3302 12.9824 34.1288 12.5044 33.732C12.0325 33.3424 11.7769 32.6871 11.7426 31.7847V18.2463H14.637V18.2605H21.5909C21.384 18.5678 21.1887 18.8842 21.0068 19.2098C20.3811 20.3208 19.9051 21.506 19.5923 22.7299C19.2795 23.9528 19.1215 25.251 19.1215 26.5869C19.1215 28.5382 19.4905 30.4255 20.219 32.1978C20.9475 33.9691 21.9972 35.5725 23.341 36.9632C24.0145 37.6602 24.768 38.2889 25.5807 38.8312C26.3934 39.3734 27.2882 39.8455 28.2402 40.2342C29.1933 40.6228 30.2201 40.9189 31.2926 41.1132C32.3641 41.3075 33.5115 41.4052 34.7025 41.4052C36.8622 41.4052 38.8379 41.0806 40.5756 40.4417C42.3122 39.8028 43.8462 38.9024 45.1359 37.768C46.4267 36.6336 47.4234 35.3313 48.099 33.8999L48.1946 33.6974L40.534 31.4073L40.5319 31.4093ZM11.3435 17.8607V31.7979C11.3819 32.8164 11.6854 33.5672 12.2466 34.0311C12.7985 34.4889 13.4958 34.7209 14.319 34.7209C15.1421 34.7209 15.9039 34.5897 16.6615 34.3292C17.2924 34.1135 17.8203 33.9223 18.2371 33.7585L19.638 39.1405C19.0456 39.3765 18.3369 39.6461 17.5262 39.9442C16.6532 40.2647 15.7012 40.5272 14.6973 40.7235C13.6933 40.9199 12.6696 41.0186 11.6542 41.0186C10.3177 41.0186 9.07263 40.7876 7.95436 40.3339C6.84855 39.8842 5.95373 39.1567 5.29482 38.1709C4.63487 37.1861 4.30022 35.8726 4.30022 34.2661V17.8607H0.467321V12.6496H4.29918V3.40765H11.3445V12.6496H16.2198C15.9881 12.9335 15.7864 13.2265 15.616 13.5266C15.2533 14.1635 14.9955 14.8604 14.8511 15.599C14.718 16.2726 14.6463 17.0356 14.637 17.8668C13.5998 17.8668 11.3445 17.8607 11.3445 17.8607H11.3435ZM15.0319 17.875C15.0413 17.0641 15.1109 16.3234 15.2398 15.6713C15.3759 14.9744 15.6191 14.3161 15.9621 13.7148C16.304 13.1146 16.78 12.5398 17.3786 12.0056C17.9814 11.4674 18.7598 10.9353 19.6921 10.4246C20.5048 9.99221 21.2396 9.60357 21.8746 9.26884C22.5023 8.93717 23.0438 8.62585 23.4824 8.34302C23.9334 8.05204 24.2816 7.74886 24.5175 7.44059C24.7649 7.11706 24.8906 6.73859 24.8906 6.31739C24.8906 5.87279 24.768 5.46177 24.5248 5.09347C24.2837 4.72925 23.9417 4.43318 23.5084 4.21445C23.077 3.99672 22.5356 3.88685 21.9006 3.88685C21.3976 3.88685 20.9247 3.94891 20.4944 4.07303C20.0641 4.19613 19.6588 4.37418 19.292 4.60004C18.9292 4.82386 18.5884 5.07516 18.2787 5.34782C18.0292 5.56758 17.7985 5.79852 17.5886 6.03863L15.2865 3.44021C15.5443 3.20519 15.8727 2.95085 16.2655 2.68124C16.727 2.36381 17.2872 2.06063 17.9315 1.77881C18.5738 1.49801 19.2982 1.26198 20.0818 1.07783C20.8623 0.893681 21.7093 0.801099 22.599 0.801099C23.9386 0.801099 25.0953 1.01272 26.0369 1.42985C26.9692 1.84291 27.6904 2.4218 28.1831 3.14924C28.6747 3.87464 28.9241 4.7384 28.9241 5.71713C28.9241 6.38861 28.7973 6.9909 28.5489 7.50672C28.2964 8.02864 27.9721 8.49359 27.5844 8.89037C27.1905 9.29224 26.7561 9.65444 26.2947 9.96779C25.8249 10.2852 25.3676 10.566 24.9332 10.8021C24.3044 11.1256 23.7328 11.4257 23.2329 11.6943C22.7195 11.97 22.2643 12.2488 21.8777 12.5225C21.4859 12.7992 21.1367 13.0851 20.8384 13.372C20.5339 13.665 20.2627 14.0038 20.034 14.3772L19.8542 14.6712H25.0974C24.4447 15.1382 23.842 15.6469 23.2932 16.1942C22.7715 16.7151 22.2913 17.2798 21.8569 17.8811L15.034 17.877L15.0319 17.875ZM44.8678 37.4811C43.6144 38.5839 42.1231 39.4579 40.4321 40.0805C38.7391 40.7032 36.8102 41.0196 34.6984 41.0196C32.3672 41.0196 30.244 40.636 28.3889 39.8781C26.5358 39.1221 24.9332 38.0519 23.6248 36.6987C22.3152 35.3436 21.2915 33.7819 20.5828 32.0553C19.874 30.3299 19.5144 28.4904 19.5144 26.5899C19.5144 23.9824 20.1317 21.563 21.3497 19.4C22.5668 17.237 24.3263 15.48 26.5805 14.1778C28.8347 12.8755 31.5473 12.2152 34.6433 12.2152C37.7393 12.2152 40.4311 12.8826 42.6489 14.1981C44.793 15.4719 46.4309 17.1496 47.5211 19.1874L40.6213 21.2496C39.9852 20.2373 39.1476 19.4438 38.128 18.8903C37.0659 18.3155 35.8749 18.0235 34.5892 18.0235C33.1519 18.0235 31.8185 18.3826 30.6264 19.0918C29.4333 19.8009 28.4845 20.8132 27.8037 22.1022C27.1261 23.3862 26.7821 24.897 26.7821 26.5909C26.7821 27.4201 26.8705 28.2127 27.044 28.9482C27.2186 29.6858 27.4836 30.3858 27.8328 31.0288C28.5292 32.3138 29.477 33.3423 30.6493 34.0861C31.8237 34.8318 33.1488 35.2103 34.5892 35.2103C35.4986 35.2103 36.3716 35.0597 37.1854 34.7636C37.9981 34.4676 38.736 34.0545 39.3804 33.5357C39.98 33.0524 40.4394 32.4959 40.7491 31.8814L47.6396 33.9416C46.99 35.2469 46.0588 36.4373 44.8689 37.4821L44.8678 37.4811Z" fill="#F2F2F3"/>
</svg>
