<svg width="50" height="335" viewBox="0 0 50 335" fill="none" xmlns="http://www.w3.org/2000/svg">
<path d="M0.0595703 0.222549V43.1972C0.0595703 44.7233 0.70008 46.1794 1.82504 47.2106L20.0715 63.9365C21.1965 64.9678 21.837 66.4238 21.837 67.9499V143.555C21.837 144.179 21.7297 144.799 21.5198 145.386L13.0803 169.017C12.8704 169.605 12.7631 170.224 12.7631 170.848V183.076C12.7631 184.52 13.3367 185.904 14.3577 186.925L27.5015 200.069C28.5226 201.09 29.0962 202.475 29.0962 203.919V292.379C29.0962 294.107 29.9156 295.731 31.3044 296.758L47.7579 308.919C49.1468 309.946 49.9662 311.57 49.9662 313.297V334.143" stroke="url(#paint0_linear_458_13630)" stroke-width="1.27035"/>
<defs>
<linearGradient id="paint0_linear_458_13630" x1="-94.3094" y1="99.1285" x2="147.057" y2="198.034" gradientUnits="userSpaceOnUse">
<stop stop-color="#8C8C8C" stop-opacity="0.21"/>
<stop offset="1" stop-color="#3D3535" stop-opacity="0.4"/>
</linearGradient>
</defs>
</svg>
