<svg width="55" height="49" viewBox="0 0 55 49" fill="none" xmlns="http://www.w3.org/2000/svg">
<path d="M46.167 36.5983L46.0855 36.7803C45.7642 37.5024 45.2551 38.1547 44.5712 38.7185C43.8778 39.2893 43.0829 39.7443 42.2053 40.0705C41.3312 40.3967 40.3922 40.561 39.4118 40.561C37.8633 40.561 36.4399 40.1462 35.1796 39.3271C33.9122 38.5058 32.8869 37.3665 32.1322 35.9423C31.375 34.517 30.9911 32.8541 30.9911 30.9986C30.9911 29.1431 31.3644 27.4176 32.1026 25.9911C32.8373 24.5694 33.8602 23.4525 35.143 22.6737C36.4269 21.8937 37.8633 21.4989 39.413 21.4989C40.7973 21.4989 42.0777 21.8192 43.2164 22.4491C44.3527 23.0791 45.2799 23.9973 45.9709 25.1768L46.0607 25.3305L54.7542 22.6749L54.6349 22.4361C53.9971 21.1597 53.1832 19.9897 52.2146 18.9568C51.2484 17.9262 50.1015 17.0043 48.8069 16.2184C47.51 15.4313 46.0666 14.8333 44.5157 14.4409C42.9683 14.0485 41.2722 13.85 39.4744 13.85C37.6766 13.85 35.9746 14.0462 34.4178 14.435C32.8574 14.8238 31.3986 15.4147 30.0816 16.1924C29.8041 16.3555 29.5336 16.5257 29.269 16.7018H23.4765C23.6643 16.4347 23.8721 16.1877 24.0989 15.9655C24.4214 15.6488 24.8017 15.3308 25.2281 15.0224C25.6522 14.7151 26.1554 14.4019 26.7212 14.0899C27.2869 13.7791 27.9354 13.4316 28.6489 13.057L28.6536 13.0546C29.1615 12.7733 29.6954 12.4388 30.2411 12.0606C30.7903 11.6801 31.3065 11.2393 31.7754 10.75C32.2503 10.2548 32.646 9.67331 32.9543 9.02329C33.2661 8.36382 33.4244 7.59916 33.4244 6.75059C33.4244 5.52501 33.1161 4.43771 32.5078 3.51823C31.9007 2.60111 31.0159 1.87545 29.8785 1.36017C28.7493 0.848425 27.3732 0.5896 25.7857 0.5896C24.7391 0.5896 23.741 0.701875 22.8197 0.924064C21.9019 1.14507 21.0538 1.42871 20.2979 1.76554C19.5396 2.10473 18.8769 2.47111 18.3289 2.85639C17.782 3.24049 17.3367 3.60332 17.0059 3.93424L16.8571 4.08315L20.103 7.82726L20.2719 7.61571C20.5377 7.28242 20.8424 6.96096 21.1779 6.65959C21.511 6.36058 21.8771 6.08285 22.2681 5.83702C22.6508 5.59592 23.0725 5.40801 23.5213 5.27564C23.969 5.14446 24.4639 5.07827 24.9931 5.07827C25.6427 5.07827 26.1884 5.18937 26.6137 5.40919C27.0354 5.62665 27.3661 5.91857 27.5964 6.2743C27.8244 6.6265 27.9401 7.02242 27.9401 7.45025C27.9401 7.84617 27.8303 8.18418 27.6059 8.48437C27.3696 8.79992 27.0106 9.11784 26.5416 9.4263C26.0538 9.74777 25.4502 10.1023 24.7486 10.4817C24.0257 10.8705 23.1906 11.3232 22.2646 11.8255H22.2622C21.172 12.4377 20.2589 13.0759 19.5478 13.7247C19.3234 13.9292 19.1143 14.1383 18.9183 14.3534H13.4435V3.61868H4.53618V14.3546H0.181152V21.3098H4.53618V39.9157C4.53618 40.8896 4.63658 41.7842 4.83501 42.5749C5.03464 43.3726 5.33938 44.0876 5.74098 44.6998C6.54064 45.9219 7.62615 46.8236 8.96798 47.3815C10.2944 47.9322 11.7674 48.2111 13.3466 48.2111C14.5302 48.2111 15.7243 48.0929 16.8937 47.8589C18.0584 47.6261 19.1639 47.3141 20.1786 46.9335C21.1885 46.5542 22.0614 46.2138 22.7736 45.9207L22.9544 45.8462L21.1377 38.709L20.8967 38.8095C20.4007 39.0175 19.7262 39.2704 18.8899 39.5623C18.0773 39.8472 17.2315 39.9913 16.3764 39.9913C15.5212 39.9913 14.8562 39.7573 14.3128 39.2964C13.7766 38.8438 13.486 38.0827 13.447 37.0344V21.3075H16.7366V21.324H24.6399C24.4049 21.6809 24.1828 22.0485 23.9761 22.4267C23.265 23.7173 22.724 25.0941 22.3685 26.5159C22.013 27.9365 21.8334 29.4445 21.8334 30.9963C21.8334 33.2631 22.2527 35.4554 23.0808 37.5142C23.9088 39.5718 25.1018 41.4344 26.629 43.05C27.3944 43.8595 28.2508 44.5899 29.1745 45.2199C30.0982 45.8498 31.1152 46.3982 32.1971 46.8496C33.2803 47.3011 34.4473 47.645 35.6663 47.8708C36.8841 48.0965 38.1881 48.2099 39.5417 48.2099C41.9962 48.2099 44.2417 47.8329 46.2166 47.0907C48.1903 46.3485 49.9338 45.3026 51.3996 43.9848C52.8667 42.6671 53.9994 41.1543 54.7672 39.4914L54.8758 39.2562L46.1693 36.5959L46.167 36.5983ZM12.9934 20.8595V37.0497C13.0372 38.2327 13.3821 39.105 14.0199 39.6439C14.6471 40.1757 15.4397 40.4452 16.3752 40.4452C17.3107 40.4452 18.1765 40.2927 19.0376 39.9902C19.7545 39.7396 20.3546 39.5174 20.8282 39.3271L22.4205 45.5791C21.7472 45.8533 20.9416 46.1665 20.0203 46.5128C19.0281 46.8851 17.9462 47.19 16.8051 47.4181C15.6641 47.6462 14.5006 47.7608 13.3466 47.7608C11.8276 47.7608 10.4126 47.4926 9.14161 46.9655C7.88483 46.4431 6.86783 45.598 6.11896 44.4528C5.36891 43.3088 4.98857 41.783 4.98857 39.9169V20.8595H0.632364V14.8061H4.98739V4.07015H12.9946V14.8061H18.5356C18.2722 15.1358 18.043 15.4762 17.8493 15.8248C17.4371 16.5647 17.1441 17.3743 16.9799 18.2323C16.8288 19.0147 16.7472 19.9011 16.7366 20.8666C15.5578 20.8666 12.9946 20.8595 12.9946 20.8595H12.9934ZM17.1855 20.8761C17.1961 19.9341 17.2752 19.0738 17.4217 18.3162C17.5764 17.5066 17.8528 16.742 18.2426 16.0435C18.6312 15.3462 19.1722 14.6785 19.8526 14.058C20.5377 13.4328 21.4224 12.8147 22.4819 12.2214C23.4056 11.7191 24.2407 11.2676 24.9624 10.8788C25.6758 10.4935 26.2912 10.1319 26.7897 9.80331C27.3023 9.4653 27.698 9.11311 27.9661 8.75501C28.2472 8.37918 28.3902 7.93953 28.3902 7.45025C28.3902 6.93378 28.2508 6.45631 27.9744 6.02848C27.7004 5.60538 27.3118 5.26146 26.8192 5.00736C26.329 4.75444 25.7136 4.6268 24.9919 4.6268C24.4202 4.6268 23.8828 4.6989 23.3938 4.84308C22.9048 4.98609 22.4441 5.19291 22.0271 5.45528C21.6149 5.71529 21.2275 6.00721 20.8755 6.32394C20.592 6.57922 20.3298 6.8475 20.0912 7.12642L17.4749 4.10797C17.7678 3.83496 18.141 3.5395 18.5875 3.22631C19.112 2.85757 19.7486 2.50538 20.481 2.17801C21.2109 1.85182 22.0342 1.57763 22.9248 1.36371C23.8119 1.1498 24.7746 1.04225 25.7857 1.04225C27.3082 1.04225 28.6229 1.28807 29.693 1.77263C30.7525 2.25246 31.5723 2.92494 32.1322 3.76996C32.6909 4.61262 32.9743 5.61601 32.9743 6.75296C32.9743 7.53298 32.8302 8.23263 32.5479 8.83183C32.2609 9.43812 31.8924 9.97823 31.4518 10.4391C31.0041 10.906 30.5104 11.3267 29.986 11.6907C29.4521 12.0595 28.9323 12.3857 28.4386 12.6598C27.724 13.0357 27.0743 13.3843 26.5062 13.6963C25.9227 14.0166 25.4053 14.3404 24.9659 14.6584C24.5206 14.9798 24.1237 15.3119 23.7847 15.6452C23.4387 15.9856 23.1304 16.3791 22.8705 16.8129L22.6662 17.1544H28.6252C27.8834 17.6969 27.1984 18.2878 26.5747 18.9237C25.9817 19.5288 25.436 20.1847 24.9423 20.8832L17.1878 20.8784L17.1855 20.8761ZM51.0949 43.6515C49.6704 44.9327 47.9754 45.9479 46.0536 46.6712C44.1294 47.3945 41.9372 47.762 39.537 47.762C36.8876 47.762 34.4744 47.3165 32.366 46.436C30.26 45.5579 28.4386 44.3146 26.9515 42.7427C25.4632 41.1685 24.2997 39.3543 23.4942 37.3487C22.6886 35.3443 22.2799 33.2075 22.2799 30.9998C22.2799 27.9707 22.9815 25.1603 24.3659 22.6477C25.749 20.1351 27.7488 18.094 30.3108 16.5812C32.8728 15.0685 35.9557 14.3014 39.4744 14.3014C42.9931 14.3014 46.0524 15.0767 48.5731 16.6049C51.0098 18.0845 52.8714 20.0334 54.1104 22.4007L46.2686 24.7963C45.5457 23.6203 44.5936 22.6985 43.4349 22.0556C42.2277 21.3878 40.8741 21.0486 39.413 21.0486C37.7794 21.0486 36.2639 21.4658 34.9091 22.2896C33.5531 23.1133 32.4747 24.2893 31.701 25.7867C30.9309 27.2782 30.5399 29.0332 30.5399 31.001C30.5399 31.9642 30.6403 32.8849 30.8376 33.7393C31.036 34.5962 31.3372 35.4093 31.7341 36.1562C32.5255 37.6489 33.6027 38.8438 34.9351 39.7077C36.2698 40.574 37.7759 41.0136 39.413 41.0136C40.4465 41.0136 41.4387 40.8387 42.3636 40.4948C43.2873 40.1509 44.1259 39.6711 44.8582 39.0683C45.5398 38.5069 46.0619 37.8605 46.4139 37.1466L54.2451 39.5399C53.5069 41.0562 52.4485 42.439 51.0961 43.6527L51.0949 43.6515Z" fill="#F2F2F3"/>
</svg>
