<svg width="62" height="54" viewBox="0 0 62 54" fill="none" xmlns="http://www.w3.org/2000/svg">
<path d="M51.9069 40.8255L51.8149 41.031C51.4523 41.846 50.8776 42.5824 50.1057 43.2188C49.323 43.8631 48.4258 44.3767 47.4351 44.7449C46.4485 45.1131 45.3886 45.2985 44.2819 45.2985C42.534 45.2985 40.9274 44.8303 39.5048 43.9058C38.0742 42.9786 36.917 41.6926 36.065 40.0851C35.2104 38.4763 34.7771 36.5993 34.7771 34.5049C34.7771 32.4105 35.1984 30.4628 36.0317 28.8526C36.861 27.2478 38.0156 25.9871 39.4635 25.108C40.9128 24.2276 42.534 23.782 44.2833 23.782C45.8459 23.782 47.2911 24.1435 48.5764 24.8546C49.859 25.5656 50.9056 26.6021 51.6856 27.9335L51.7869 28.1069L61.5998 25.1094L61.4652 24.8399C60.7452 23.3991 59.8266 22.0784 58.7333 20.9125C57.6427 19.7492 56.3481 18.7087 54.8868 17.8216C53.4229 16.9331 51.7936 16.2581 50.043 15.8152C48.2964 15.3723 46.3819 15.1482 44.3526 15.1482C42.3234 15.1482 40.4021 15.3696 38.6449 15.8085C36.8836 16.2474 35.237 16.9144 33.7504 17.7922C33.4371 17.9763 33.1318 18.1684 32.8331 18.3672H26.2948C26.5068 18.0657 26.7414 17.7869 26.9974 17.5361C27.3614 17.1786 27.7907 16.8197 28.272 16.4715C28.7507 16.1247 29.3186 15.7712 29.9573 15.419C30.5959 15.0681 31.3279 14.6759 32.1332 14.2531L32.1385 14.2504C32.7118 13.9329 33.3145 13.5554 33.9304 13.1285C34.5504 12.6989 35.133 12.2013 35.6623 11.649C36.1983 11.0901 36.645 10.4337 36.993 9.70003C37.3449 8.95564 37.5236 8.09253 37.5236 7.1347C37.5236 5.75131 37.1756 4.52401 36.489 3.48614C35.8037 2.45093 34.8051 1.63184 33.5211 1.0502C32.2465 0.472572 30.6932 0.18042 28.9013 0.18042C27.72 0.18042 26.5934 0.307152 25.5535 0.557949C24.5175 0.807412 23.5602 1.12758 22.7069 1.50778C21.851 1.89064 21.103 2.30419 20.4844 2.73908C19.8671 3.17264 19.3644 3.58219 18.9911 3.95571L18.8231 4.1238L22.487 8.34999L22.6776 8.1112C22.9776 7.73501 23.3216 7.37215 23.7002 7.03198C24.0762 6.69447 24.4895 6.38097 24.9308 6.10349C25.3628 5.83135 25.8388 5.61924 26.3454 5.46983C26.8508 5.32175 27.4094 5.24705 28.0067 5.24705C28.74 5.24705 29.356 5.37245 29.836 5.62058C30.3119 5.86604 30.6852 6.19554 30.9452 6.59708C31.2026 6.99462 31.3332 7.44152 31.3332 7.92444C31.3332 8.37134 31.2092 8.75287 30.9559 9.09171C30.6892 9.4479 30.2839 9.80675 29.7546 10.1549C29.204 10.5178 28.5227 10.918 27.7307 11.3462C26.9148 11.7851 25.9721 12.296 24.9268 12.863H24.9242C23.6936 13.554 22.663 14.2744 21.8603 15.0068C21.607 15.2376 21.371 15.4737 21.1497 15.7165H14.97V3.59953H4.91577V15.7178H0V23.5686H4.91577V44.5701C4.91577 45.6694 5.0291 46.6792 5.25309 47.5717C5.47841 48.4721 5.8224 49.2792 6.27571 49.9703C7.17833 51.3496 8.40361 52.3675 9.91821 52.9972C11.4155 53.6188 13.0781 53.9336 14.8606 53.9336C16.1966 53.9336 17.5445 53.8002 18.8645 53.5361C20.1791 53.2733 21.427 52.9211 22.5723 52.4916C23.7122 52.0633 24.6975 51.6791 25.5015 51.3483L25.7055 51.2643L23.6549 43.2081L23.3829 43.3215C22.8229 43.5563 22.0616 43.8417 21.1177 44.1712C20.2004 44.4927 19.2458 44.6555 18.2805 44.6555C17.3152 44.6555 16.5646 44.3914 15.9513 43.8711C15.346 43.3602 15.018 42.501 14.974 41.3178V23.5659H18.6871V23.5846H27.6081C27.3427 23.9874 27.0921 24.4023 26.8588 24.8292C26.0561 26.286 25.4455 27.8401 25.0442 29.4449C24.6429 31.0484 24.4402 32.7507 24.4402 34.5022C24.4402 37.0609 24.9135 39.5355 25.8481 41.8594C26.7828 44.1819 28.1294 46.2843 29.8533 48.108C30.7172 49.0218 31.6839 49.8462 32.7265 50.5572C33.7691 51.2683 34.917 51.8873 36.1383 52.3969C37.3609 52.9064 38.6782 53.2946 40.0541 53.5494C41.4287 53.8042 42.9007 53.9323 44.4286 53.9323C47.1991 53.9323 49.7337 53.5068 51.9629 52.669C54.1908 51.8312 56.1587 50.6506 57.8133 49.1632C59.4692 47.6757 60.7479 45.9682 61.6145 44.0912L61.7371 43.8257L51.9096 40.8228L51.9069 40.8255ZM14.462 23.0603V41.3351C14.5113 42.6705 14.9006 43.655 15.6206 44.2633C16.3286 44.8636 17.2232 45.1678 18.2792 45.1678C19.3351 45.1678 20.3124 44.9957 21.2843 44.6542C22.0936 44.3714 22.7709 44.1206 23.3056 43.9058L25.1028 50.9628C24.3429 51.2723 23.4336 51.6258 22.3936 52.0167C21.2737 52.4369 20.0524 52.781 18.7645 53.0385C17.4765 53.296 16.1633 53.4254 14.8606 53.4254C13.1461 53.4254 11.5488 53.1226 10.1142 52.5276C8.6956 51.9379 7.54765 50.9841 6.70236 49.6914C5.85573 48.4001 5.42642 46.6779 5.42642 44.5715V23.0603H0.50931V16.2274H5.42508V4.10913H14.4633V16.2274H20.7177C20.4204 16.5996 20.1617 16.9838 19.9431 17.3773C19.4778 18.2124 19.1471 19.1263 18.9618 20.0948C18.7911 20.9779 18.6991 21.9784 18.6871 23.0683C17.3565 23.0683 14.4633 23.0603 14.4633 23.0603H14.462ZM19.1938 23.079C19.2058 22.0157 19.2951 21.0446 19.4604 20.1895C19.6351 19.2757 19.9471 18.4125 20.3871 17.6241C20.8257 16.8371 21.4363 16.0833 22.2043 15.383C22.9776 14.6773 23.9762 13.9796 25.1722 13.3099C26.2148 12.7429 27.1574 12.2333 27.972 11.7944C28.7773 11.3596 29.472 10.9513 30.0346 10.5805C30.6132 10.199 31.0599 9.80141 31.3625 9.3972C31.6799 8.97298 31.8412 8.47672 31.8412 7.92444C31.8412 7.34147 31.6839 6.80252 31.3719 6.31961C31.0626 5.84202 30.6239 5.45382 30.0679 5.16701C29.5146 4.88153 28.82 4.73745 28.0054 4.73745C27.3601 4.73745 26.7534 4.81883 26.2015 4.98158C25.6495 5.143 25.1295 5.37645 24.6589 5.6726C24.1935 5.96609 23.7562 6.29559 23.3589 6.65311C23.0389 6.94126 22.7429 7.24409 22.4736 7.55892L19.5204 4.15181C19.8511 3.84365 20.2724 3.51015 20.7764 3.15663C21.3683 2.74041 22.087 2.34288 22.9136 1.97335C23.7376 1.60516 24.6669 1.29567 25.6721 1.05421C26.6734 0.812748 27.76 0.691352 28.9013 0.691352C30.6199 0.691352 32.1038 0.968829 33.3118 1.51578C34.5077 2.05739 35.433 2.81645 36.065 3.77028C36.6956 4.72144 37.0156 5.85403 37.0156 7.13736C37.0156 8.01782 36.853 8.80756 36.5343 9.48391C36.2103 10.1683 35.7943 10.7779 35.297 11.2982C34.7917 11.8251 34.2344 12.3 33.6424 12.7109C33.0398 13.1271 32.4532 13.4953 31.8959 13.8048C31.0892 14.229 30.3559 14.6226 29.7146 14.9748C29.056 15.3363 28.472 15.7018 27.976 16.0607C27.4734 16.4235 27.0254 16.7984 26.6428 17.1746C26.2521 17.5588 25.9041 18.003 25.6108 18.4926L25.3802 18.8781H32.1065C31.2692 19.4904 30.4959 20.1575 29.792 20.8752C29.1227 21.5582 28.5067 22.2986 27.9494 23.087L19.1964 23.0816L19.1938 23.079ZM57.4693 48.787C55.8614 50.2331 53.9482 51.379 51.7789 52.1954C49.607 53.0118 47.1325 53.4267 44.4233 53.4267C41.4327 53.4267 38.7089 52.9238 36.329 51.9299C33.9518 50.9388 31.8959 49.5354 30.2173 47.7611C28.5373 45.9842 27.2241 43.9365 26.3148 41.6726C25.4055 39.4101 24.9442 36.9982 24.9442 34.5062C24.9442 31.0871 25.7361 27.9148 27.2987 25.0787C28.86 22.2425 31.1172 19.9387 34.0091 18.2311C36.901 16.5236 40.3808 15.6578 44.3526 15.6578C48.3244 15.6578 51.7776 16.5329 54.6228 18.2578C57.3733 19.928 59.4746 22.1278 60.8732 24.7999L52.0216 27.5039C51.2056 26.1766 50.131 25.136 48.8231 24.4103C47.4605 23.6566 45.9325 23.2737 44.2833 23.2737C42.4394 23.2737 40.7288 23.7446 39.1995 24.6745C37.6689 25.6043 36.4516 26.9316 35.5784 28.6218C34.7091 30.3054 34.2677 32.2864 34.2677 34.5076C34.2677 35.5948 34.3811 36.634 34.6037 37.5985C34.8277 38.5657 35.1677 39.4835 35.6157 40.3266C36.509 42.0115 37.7249 43.3602 39.2289 44.3353C40.7354 45.3132 42.4354 45.8094 44.2833 45.8094C45.4499 45.8094 46.5698 45.612 47.6138 45.2238C48.6564 44.8356 49.603 44.294 50.4297 43.6136C51.199 42.98 51.7883 42.2503 52.1856 41.4445L61.0252 44.1459C60.1919 45.8575 58.9973 47.4183 57.4707 48.7883L57.4693 48.787Z" fill="#F2F2F3"/>
</svg>
